<svg viewBox="0 0 338 120" fill="none" xmlns="http://www.w3.org/2000/svg">
<path d="M277.1 116.71C276.86 116.71 276.63 116.615 276.46 116.445C276.29 116.276 276.195 116.046 276.195 115.806V6.79949C276.195 6.37167 276.497 6.00068 276.915 5.91385L295.82 1.97978C295.951 1.95229 296.088 1.95456 296.218 1.98642C296.349 2.01828 296.471 2.07892 296.576 2.16393C296.68 2.24893 296.764 2.35616 296.822 2.47779C296.88 2.59942 296.91 2.73239 296.909 2.867V115.806C296.909 116.046 296.814 116.276 296.644 116.445C296.475 116.615 296.244 116.71 296.004 116.71H277.1ZM39.486 119.017C31.9347 119.017 25.1921 117.17 19.2581 113.479C13.3241 109.786 8.63164 104.738 5.17898 98.3315C1.72633 91.9252 0 84.6506 0 76.5062C0 68.3633 1.72633 61.1425 5.17898 54.8451C8.63164 48.4372 13.3241 43.4439 19.2581 39.8602C25.1921 36.1677 31.9347 34.3222 39.486 34.3222C45.5289 34.3222 50.8153 35.462 55.3451 37.7432C58.9778 39.5698 62.0562 41.9899 64.5785 45.0052C65.1503 45.6887 66.3507 45.302 66.3507 44.41V4.83877C66.3507 4.41095 66.6508 4.04154 67.0709 3.95471L85.9752 0.0190584C86.1068 -0.00837257 86.2428 -0.00616756 86.3734 0.0255134C86.504 0.0571934 86.6259 0.117555 86.7303 0.202212C86.8347 0.286869 86.9189 0.393697 86.9768 0.514933C87.0346 0.636173 87.0648 0.768783 87.065 0.903123V116.155C87.065 116.395 86.9697 116.625 86.7999 116.794C86.6302 116.964 86.4 117.059 86.16 117.059H69.3611C69.1513 117.059 68.9481 116.986 68.7862 116.853C68.6242 116.72 68.5137 116.534 68.4734 116.328L66.7518 107.543C66.5986 106.765 65.5783 106.534 65.0729 107.144C62.6611 110.053 59.6349 112.653 55.9927 114.942C51.7851 117.658 46.2839 119.015 39.4876 119.015L39.486 119.017ZM43.8563 100.774C50.5452 100.774 55.9927 98.5477 60.2003 94.0959C64.5154 89.5366 66.6745 83.7271 66.6745 76.6688C66.6745 69.6105 64.5154 63.8562 60.2003 59.4043C55.9927 54.8451 50.5452 52.5639 43.8563 52.5639C37.2748 52.5639 31.8273 54.7898 27.5107 59.2417C23.1941 63.6936 21.0381 69.4479 21.0381 76.5062C21.0381 83.5645 23.1956 89.3724 27.5107 93.9348C31.8273 98.4925 37.2748 100.774 43.8563 100.774ZM137.574 119.028C129.482 119.028 122.309 117.291 116.051 113.817C109.793 110.342 104.884 105.456 101.324 99.1587C97.7641 92.8597 95.9841 85.5852 95.9841 77.3334C95.9841 68.9727 97.7104 61.534 101.163 55.0203C104.723 48.5051 109.578 43.4549 115.727 39.8729C121.985 36.1803 129.321 34.3349 137.737 34.3349C145.613 34.3349 152.571 36.0714 158.612 39.5461C164.655 43.0208 169.347 47.7994 172.691 53.8805C176.144 59.8511 177.87 66.5289 177.87 73.914C177.87 75.1075 177.816 76.3562 177.709 77.6586C177.709 78.7021 177.674 79.7804 177.605 80.8949C177.59 81.1223 177.489 81.3355 177.322 81.491C177.155 81.6464 176.936 81.7325 176.708 81.7316H117.506C117.382 81.7306 117.259 81.7556 117.146 81.8049C117.033 81.8541 116.931 81.9267 116.847 82.0177C116.763 82.1087 116.7 82.2163 116.66 82.3334C116.621 82.4506 116.606 82.5747 116.618 82.6978C117.196 88.5357 119.327 93.1534 123.01 96.5523C127.001 100.136 131.803 101.928 137.414 101.928C141.62 101.928 145.127 101.004 147.932 99.1587C150.677 97.3164 152.749 94.9941 154.155 92.1872C154.313 91.8715 154.632 91.6663 154.984 91.6663H174.231C174.371 91.665 174.51 91.697 174.635 91.7597C174.76 91.8224 174.869 91.9139 174.952 92.0267C175.035 92.1396 175.09 92.2705 175.112 92.4087C175.135 92.547 175.124 92.6886 175.081 92.8219C173.541 97.4758 171.126 101.76 167.838 105.672C164.385 109.799 160.068 113.056 154.891 115.444C149.821 117.834 144.048 119.028 137.574 119.028ZM137.737 51.2741C132.667 51.2741 128.189 52.7391 124.305 55.6707C120.66 58.3198 118.249 62.3091 117.076 67.6372C117.048 67.7663 117.05 67.9 117.082 68.0283C117.113 68.1567 117.172 68.2763 117.256 68.3785C117.34 68.4806 117.445 68.5627 117.565 68.6186C117.685 68.6744 117.816 68.7027 117.948 68.7012H155.87C156.391 68.7012 156.808 68.2607 156.755 67.7429C156.265 62.8695 154.351 58.9544 151.005 55.9975C147.445 52.8481 143.023 51.2741 137.737 51.2741ZM227.687 119.029C219.596 119.029 212.422 117.293 206.164 113.818C199.906 110.344 194.998 105.458 191.438 99.1603C187.877 92.8629 186.097 85.5868 186.097 77.335C186.097 68.9743 187.824 61.5355 191.275 55.0219C194.836 48.5067 199.69 43.4565 205.84 39.8745C212.098 36.1819 219.433 34.3364 227.848 34.3364C235.725 34.3364 242.684 36.073 248.725 39.5477C254.767 43.0223 259.459 47.801 262.804 53.8821C266.257 59.8527 267.983 66.5305 267.983 73.9156C267.983 75.109 267.93 76.3578 267.821 77.6602C267.821 78.7037 267.786 79.7835 267.718 80.8965C267.703 81.1238 267.602 81.3367 267.435 81.4921C267.268 81.6475 267.049 81.7337 266.821 81.7332H207.619C207.495 81.7322 207.373 81.7572 207.259 81.8065C207.146 81.8557 207.044 81.9282 206.96 82.0192C206.876 82.1102 206.812 82.2178 206.773 82.3349C206.733 82.452 206.718 82.5762 206.73 82.6994C207.308 88.5373 209.44 93.155 213.123 96.5539C217.114 100.137 221.916 101.929 227.525 101.929C231.732 101.929 235.239 101.006 238.045 99.1603C240.789 97.3179 242.862 94.9957 244.267 92.1888C244.425 91.8731 244.744 91.6678 245.097 91.6678H264.343C264.949 91.6678 265.384 92.2488 265.193 92.8234C263.654 97.4774 261.239 101.762 257.949 105.674C254.497 109.8 250.182 113.059 245.003 115.446C239.933 117.836 234.16 119.029 227.687 119.029ZM227.848 51.2757C222.778 51.2757 218.301 52.7407 214.417 55.6723C210.773 58.3229 208.363 62.3107 207.188 67.6387C207.16 67.7679 207.162 67.9016 207.193 68.0299C207.225 68.1582 207.284 68.2779 207.368 68.3801C207.452 68.4822 207.557 68.5643 207.677 68.6201C207.797 68.676 207.927 68.7042 208.06 68.7028H245.983C246.505 68.7028 246.92 68.2623 246.868 67.7445C246.38 62.8711 244.462 58.956 241.119 55.9991C237.559 52.8496 233.136 51.2757 227.848 51.2757Z" fill="#01090F"/>
<path d="M324.054 116.733C331.756 116.733 338 110.448 338 102.697C338 94.9459 331.756 88.6611 324.054 88.6611C316.352 88.6611 310.109 94.9443 310.109 102.696C310.109 110.447 316.352 116.733 324.054 116.733Z" fill="#2C71F0"/>
</svg>
