<svg width="338" height="120" viewBox="0 0 338 120" fill="none" xmlns="http://www.w3.org/2000/svg">
<g clip-path="url(#clip0_259_693)">
<path d="M277.1 117.214C276.86 117.214 276.63 117.119 276.46 116.949C276.29 116.78 276.195 116.55 276.195 116.31V7.3034C276.195 6.87558 276.497 6.50459 276.915 6.41776L295.82 2.48369C295.951 2.4562 296.088 2.45847 296.218 2.49033C296.349 2.52219 296.471 2.58283 296.576 2.66784C296.68 2.75284 296.764 2.86007 296.822 2.9817C296.88 3.10333 296.91 3.2363 296.909 3.37091V116.31C296.909 116.55 296.814 116.78 296.644 116.949C296.475 117.119 296.244 117.214 296.004 117.214H277.1ZM39.486 119.521C31.9347 119.521 25.1921 117.674 19.2581 113.983C13.3241 110.29 8.63164 105.242 5.17898 98.8354C1.72633 92.4291 0 85.1545 0 77.0101C0 68.8672 1.72633 61.6464 5.17898 55.349C8.63164 48.9411 13.3241 43.9478 19.2581 40.3641C25.1921 36.6716 31.9347 34.8261 39.486 34.8261C45.5289 34.8261 50.8153 35.9659 55.3451 38.2471C58.9778 40.0737 62.0562 42.4938 64.5785 45.5091C65.1503 46.1926 66.3507 45.8059 66.3507 44.9139V5.34268C66.3507 4.91486 66.6508 4.54545 67.0709 4.45862L85.9752 0.522965C86.1068 0.495534 86.2428 0.497739 86.3734 0.52942C86.504 0.5611 86.6259 0.621462 86.7303 0.706119C86.8347 0.790776 86.9189 0.897604 86.9768 1.01884C87.0346 1.14008 87.0648 1.27269 87.065 1.40703V116.659C87.065 116.899 86.9697 117.129 86.7999 117.298C86.6302 117.468 86.4 117.563 86.16 117.563H69.3611C69.1513 117.563 68.9481 117.49 68.7862 117.357C68.6242 117.224 68.5137 117.038 68.4734 116.832L66.7518 108.047C66.5986 107.269 65.5783 107.038 65.0729 107.648C62.6611 110.557 59.6349 113.157 55.9927 115.446C51.7851 118.162 46.2839 119.519 39.4876 119.519L39.486 119.521ZM43.8563 101.278C50.5452 101.278 55.9927 99.0516 60.2003 94.5998C64.5154 90.0405 66.6745 84.231 66.6745 77.1727C66.6745 70.1144 64.5154 64.3601 60.2003 59.9082C55.9927 55.349 50.5452 53.0678 43.8563 53.0678C37.2748 53.0678 31.8273 55.2937 27.5107 59.7456C23.1941 64.1975 21.0381 69.9518 21.0381 77.0101C21.0381 84.0684 23.1956 89.8763 27.5107 94.4387C31.8273 98.9964 37.2748 101.278 43.8563 101.278ZM137.574 119.532C129.482 119.532 122.309 117.795 116.051 114.321C109.793 110.846 104.884 105.96 101.324 99.6626C97.7641 93.3636 95.9841 86.0891 95.9841 77.8373C95.9841 69.4766 97.7104 62.0379 101.163 55.5242C104.723 49.009 109.578 43.9588 115.727 40.3768C121.985 36.6842 129.321 34.8388 137.737 34.8388C145.613 34.8388 152.571 36.5753 158.612 40.05C164.655 43.5247 169.347 48.3033 172.691 54.3844C176.144 60.355 177.87 67.0328 177.87 74.4179C177.87 75.6114 177.816 76.8601 177.709 78.1625C177.709 79.206 177.674 80.2843 177.605 81.3988C177.59 81.6262 177.489 81.8394 177.322 81.9949C177.155 82.1503 176.936 82.2364 176.708 82.2355H117.506C117.382 82.2345 117.259 82.2595 117.146 82.3088C117.033 82.358 116.931 82.4306 116.847 82.5216C116.763 82.6126 116.7 82.7202 116.66 82.8373C116.621 82.9545 116.606 83.0786 116.618 83.2017C117.196 89.0396 119.327 93.6573 123.01 97.0562C127.001 100.64 131.803 102.432 137.414 102.432C141.62 102.432 145.127 101.508 147.932 99.6626C150.677 97.8203 152.749 95.498 154.155 92.6911C154.313 92.3754 154.632 92.1702 154.984 92.1702H174.231C174.371 92.1689 174.51 92.2009 174.635 92.2636C174.76 92.3263 174.869 92.4178 174.952 92.5306C175.035 92.6435 175.09 92.7744 175.112 92.9126C175.135 93.0509 175.124 93.1925 175.081 93.3258C173.541 97.9797 171.126 102.264 167.838 106.176C164.385 110.303 160.068 113.56 154.891 115.948C149.821 118.338 144.048 119.532 137.574 119.532ZM137.737 51.778C132.667 51.778 128.189 53.243 124.305 56.1746C120.66 58.8237 118.249 62.813 117.076 68.1411C117.048 68.2702 117.05 68.4039 117.082 68.5322C117.113 68.6606 117.172 68.7802 117.256 68.8824C117.34 68.9845 117.445 69.0666 117.565 69.1225C117.685 69.1783 117.816 69.2066 117.948 69.2051H155.87C156.391 69.2051 156.808 68.7646 156.755 68.2468C156.265 63.3734 154.351 59.4583 151.005 56.5014C147.445 53.352 143.023 51.778 137.737 51.778ZM227.687 119.533C219.596 119.533 212.422 117.797 206.164 114.322C199.906 110.848 194.998 105.962 191.438 99.6642C187.877 93.3668 186.097 86.0907 186.097 77.8389C186.097 69.4782 187.824 62.0394 191.275 55.5258C194.836 49.0106 199.69 43.9604 205.84 40.3784C212.098 36.6858 219.433 34.8403 227.848 34.8403C235.725 34.8403 242.684 36.5769 248.725 40.0516C254.767 43.5262 259.459 48.3049 262.804 54.386C266.257 60.3566 267.983 67.0344 267.983 74.4195C267.983 75.6129 267.93 76.8617 267.821 78.1641C267.821 79.2076 267.786 80.2874 267.718 81.4004C267.703 81.6277 267.602 81.8406 267.435 81.996C267.268 82.1514 267.049 82.2376 266.821 82.2371H207.619C207.495 82.2361 207.373 82.2611 207.259 82.3104C207.146 82.3596 207.044 82.4321 206.96 82.5231C206.876 82.6141 206.812 82.7217 206.773 82.8388C206.733 82.9559 206.718 83.0801 206.73 83.2033C207.308 89.0412 209.44 93.6589 213.123 97.0578C217.114 100.641 221.916 102.433 227.525 102.433C231.732 102.433 235.239 101.51 238.045 99.6642C240.789 97.8218 242.862 95.4996 244.267 92.6927C244.425 92.377 244.744 92.1717 245.097 92.1717H264.343C264.949 92.1717 265.384 92.7527 265.193 93.3273C263.654 97.9813 261.239 102.266 257.949 106.178C254.497 110.304 250.182 113.563 245.003 115.95C239.933 118.34 234.16 119.533 227.687 119.533ZM227.848 51.7796C222.778 51.7796 218.301 53.2446 214.417 56.1762C210.773 58.8268 208.363 62.8146 207.188 68.1426C207.16 68.2718 207.162 68.4055 207.193 68.5338C207.225 68.6621 207.284 68.7818 207.368 68.884C207.452 68.9861 207.557 69.0682 207.677 69.124C207.797 69.1799 207.927 69.2081 208.06 69.2067H245.983C246.505 69.2067 246.92 68.7662 246.868 68.2484C246.38 63.375 244.462 59.4599 241.119 56.503C237.559 53.3535 233.136 51.7796 227.848 51.7796Z" fill="#01090F"/>
<path d="M324.054 117.237C331.756 117.237 338 110.952 338 103.201C338 95.4498 331.756 89.165 324.054 89.165C316.352 89.165 310.109 95.4482 310.109 103.2C310.109 110.951 316.352 117.236 324.054 117.236V117.237Z" fill="#2C71F0"/>
</g>
<defs>
<clipPath id="clip0_259_693">
<rect width="338" height="120" fill="white"/>
</clipPath>
</defs>
</svg>
