<svg viewBox="0 0 396 120" fill="none" xmlns="http://www.w3.org/2000/svg">
<path d="M363.074 58.2222H349.281C340.382 58.2222 335.488 64.8889 335.488 76.4444V117.778H308.791V58.2222H297.667C288.769 58.2222 283.874 64.8889 283.874 76.4444V117.778H257.178V36H283.874V48.4444C288.324 38.6667 294.108 36 303.007 36H335.488V48.4444C339.937 38.6667 345.721 36 354.62 36H363.519L363.074 58.2222ZM250.948 83.1111H195.775C197.11 92.4444 202.894 97.3333 212.238 97.3333C219.357 97.3333 224.252 94.2222 226.031 89.3333L249.613 96C243.829 110.222 229.591 118.667 212.238 118.667C183.317 118.667 169.969 96 169.969 76.4444C169.969 57.3333 181.537 34.6667 210.458 34.6667C241.16 34.6667 251.393 57.7778 251.393 75.1111C251.393 79.1111 251.393 81.3333 250.948 83.1111ZM225.587 67.5556C225.142 60.4444 219.802 54.2222 210.903 54.2222C202.449 54.2222 197.555 57.7778 195.775 67.5556H225.587ZM123.694 117.778H146.831L176.198 36.4444H149.501L135.263 84L121.025 36H94.3281L123.694 117.778ZM15.1281 117.778H41.3798V58.2222H66.7416V117.778H92.9933V36H41.3798V31.1111C41.3798 25.7778 45.3843 22.2222 51.1686 22.2222H66.7416V0H47.1641C28.0315 0 15.1281 12 15.1281 29.3333V36H0V58.2222H15.1281V117.778Z" fill="#404145"/>
<path d="M379.537 120C388.436 120 396 112.445 396 103.556C396 94.6669 388.436 87.1113 379.537 87.1113C370.638 87.1113 363.074 94.6669 363.074 103.556C363.074 112.445 370.638 120 379.537 120Z" fill="#1DBF73"/>
</svg>
