<svg viewBox="0 0 240 120" fill="none" xmlns="http://www.w3.org/2000/svg">
<path d="M140.509 8.4492C153.059 13.1536 162.467 23.5056 167.96 37.0768C161.53 25.1561 151.647 16.5249 139.251 11.8989C126.859 7.27334 112.195 5.31356 99.4858 10.0185C112.589 3.43073 127.962 3.74526 140.509 8.4492Z" fill="#004B94"/>
<path d="M101.373 3.11919C88.9016 8.05975 79.8068 18.5685 74.5498 32.2941C80.7417 20.2916 90.4704 11.4306 102.785 6.48999C115.017 1.62831 129.531 1.07813 142.235 5.5469C129.06 -0.802293 113.844 -1.82377 101.373 3.11919Z" fill="#004B94"/>
<path d="M117.844 10.3316C105.527 10.8818 94.3165 17.3099 85.6069 27.6642C94.631 19.0383 105.845 14.2526 117.999 13.7053C130.158 13.1551 143.648 15.5857 153.371 23.3551C143.802 13.8631 130.234 9.78431 117.844 10.3316Z" fill="#004B94"/>
<path d="M119.648 45.3913C123.337 45.3913 126.315 42.3346 126.315 38.7252C126.315 35.037 123.337 32.0586 119.648 32.0586C115.963 32.0586 112.982 35.037 112.982 38.7252C112.982 42.3346 115.963 45.3913 119.648 45.3913Z" fill="#004B94"/>
<path d="M131.099 72.0558C131.099 51.8208 158.941 42.6452 175.019 40.293C158.86 40.293 131.804 41.8594 119.65 54.0186C107.488 41.8594 80.4316 40.293 64.2725 40.293C80.3532 42.6452 108.197 51.8208 108.197 72.0558H131.099Z" fill="#004B94"/>
<path d="M211.444 119.451V114.197H199.366V107.53H210.582V102.278H199.366V96.6307H211.054V91.3761H192.307V119.451L211.444 119.451ZM128.857 117.099V110.587C125.483 112.863 122.036 114.121 118.662 114.121C113.407 114.121 110.115 110.669 110.115 105.414C110.115 100.078 113.565 96.7856 119.288 96.7856C122.35 96.7856 125.483 97.8071 128.624 99.764V93.2575C125.483 91.6882 122.269 90.9082 118.817 90.9082C109.018 90.9082 102.899 96.9433 102.899 105.414C102.899 109.647 104.465 113.336 107.213 116.002C109.958 118.59 113.641 119.999 118.109 119.999C122.036 119.998 125.564 119.061 128.857 117.099ZM98.6626 91.3761H91.3727V119.451H98.6626V91.3761ZM55.0574 119.451V114.197H42.9766V107.53H54.1927V102.278H42.9766V96.6307H54.6645V91.3761H35.9199V119.451L55.0574 119.451ZM30.4297 119.451V91.3761H24.2348L15.1376 102.75L6.19241 91.3761H0V119.451H6.89938V102.118L15.1376 112.397L23.5303 102.118V119.451L30.4297 119.451Z" fill="#004B94"/>
<path d="M81.5666 94.2764C78.9734 92.3143 76.2307 91.6886 73.1739 91.4529C72.1524 91.4529 71.1362 91.374 69.9599 91.374H59.4507V119.449H69.9599C71.1358 119.449 72.1524 119.449 73.1739 119.373C75.8378 119.297 78.1929 118.823 80.4662 117.335C84.7017 114.59 87.0539 110.433 87.0539 105.412C87.0544 100.864 85.1735 97.0216 81.5666 94.2764ZM73.1744 113.647C72.7002 113.726 72.2313 113.804 71.684 113.804H66.5083V97.1028H71.684C72.2313 97.1028 72.7002 97.1028 73.1744 97.1812C77.1743 97.8074 79.8381 101.021 79.8381 105.411C79.8381 109.807 77.1743 113.021 73.1744 113.647Z" fill="#004B94"/>
<path d="M161.567 101.102C160.857 98.7444 159.599 96.7062 157.719 94.9042C154.977 92.2351 151.294 90.9072 146.896 90.9072C142.422 90.9072 138.82 92.2351 135.993 94.9042C133.172 97.6493 131.606 101.256 131.606 105.411C131.606 109.57 133.172 113.258 135.993 115.922C138.82 118.589 142.422 120 146.896 120C151.294 120 154.901 118.588 157.719 115.922C159.6 114.196 160.857 112.158 161.567 109.806C161.957 108.394 162.19 106.983 162.19 105.411C162.19 103.92 161.957 102.514 161.567 101.102ZM146.895 114.039C142.191 114.039 138.819 110.511 138.819 105.411C138.819 100.389 142.191 96.8635 146.895 96.8635C151.526 96.8635 154.9 100.389 154.9 105.411C154.9 110.511 151.526 114.039 146.895 114.039Z" fill="#004B94"/>
<path d="M182.741 91.375L175.367 107.77L168.465 91.375H160.937L161.568 92.711L173.722 119.767H176.7L190.347 91.375H182.741Z" fill="#004B94"/>
<path d="M235.992 109.883C235.209 108.079 234.033 106.903 232.7 106.277C236.073 104.786 237.561 102.591 237.561 99.5315C237.561 93.9629 233.957 91.4558 226.659 91.375H215.996V119.452H223.052V108.079C223.369 108.079 223.6 108.003 223.916 108.003C225.011 108.003 225.952 108.16 226.659 108.471C227.678 109.022 228.306 109.883 228.933 111.371L232.539 119.452H240.463L235.992 109.883ZM226.659 102.905H223.052V96.3935H226.659C229.011 96.4719 230.268 97.6482 230.268 99.6075C230.269 101.805 229.092 102.827 226.659 102.905Z" fill="#004B94"/>
</svg>
