<svg viewBox="0 0 580 120" fill="none" xmlns="http://www.w3.org/2000/svg">
<path d="M27.0747 42.7345C27.0747 46.7408 30.2207 49.8887 34.2247 49.8887C38.2287 49.8887 41.3747 46.5501 41.3747 42.7345V25.5644C41.3747 21.558 38.2287 18.4102 34.2247 18.4102C30.2207 18.4102 27.0747 21.558 27.0747 25.5644V42.7345Z" fill="#394898"/>
<path d="M34.1293 68.2989C53.0054 68.2989 68.2587 53.0366 68.2587 34.1494C68.2587 15.2623 53.0054 0 34.1293 0C15.2533 0 0 15.2623 0 34.1494C0 53.0366 15.3487 68.2989 34.1293 68.2989ZM34.1293 11.3513C46.7134 11.3513 56.914 21.6534 56.914 34.1494C56.914 46.6455 46.618 56.9476 34.1293 56.9476C21.6407 56.9476 11.3447 46.6455 11.3447 34.1494C11.3447 21.6534 21.6407 11.3513 34.1293 11.3513Z" fill="#394898"/>
<path d="M295.533 36.0565C295.915 33.5763 297.249 31.287 299.347 29.57C301.444 27.853 303.732 26.8037 306.497 26.8037C307.736 26.8037 308.975 26.9945 310.024 27.4714C311.073 27.853 311.931 28.5207 312.789 29.3792C313.456 30.2377 314.028 31.287 314.219 32.3363C314.409 33.3856 314.409 34.6257 314.219 35.8657C314.028 37.1058 313.551 38.3458 312.979 39.3951C312.312 40.4444 311.549 41.4937 310.501 42.3522C309.452 43.2107 308.403 43.783 307.164 44.4508C305.925 44.8323 304.685 45.1185 303.351 45.1185C302.111 45.1185 300.872 44.9277 299.823 44.4508C298.775 44.0692 297.917 43.2107 297.345 42.3522C296.677 41.4937 296.105 40.4444 295.915 39.3951C295.343 38.3458 295.343 37.2965 295.533 36.0565Z" fill="#010202"/>
<path d="M74.7412 102.83L86.9439 34.4355H109.919L118.69 80.2225L144.43 34.4355H166.261L154.059 102.83H137.375L145.479 56.5659L121.264 102.83H108.299L99.9092 56.5659L91.7106 102.83H74.7412Z" fill="#010202"/>
<path d="M167.024 81.9394L172.458 51.3193H188.76L184.184 77.7422C183.517 81.5578 183.517 84.4195 184.566 86.7089C185.424 88.9982 187.521 90.2383 191.048 90.2383C194.385 90.2383 197.15 88.9982 199.247 86.7089C201.344 84.4195 202.584 81.2717 203.442 77.2653L208.018 51.5101H224.415L215.454 103.02H199.152L200.391 95.6755C198.484 98.4418 196.006 100.445 192.86 101.971C189.714 103.402 186.186 104.261 181.992 104.261C178.464 104.261 175.509 103.593 173.412 102.544C171.314 101.494 169.598 100.063 168.645 98.3464C167.406 96.2478 166.738 94.1492 166.548 91.4783C165.976 88.8074 166.452 85.6596 167.024 81.9394Z" fill="#010202"/>
<path d="M224.415 102.83L236.522 34.4355H252.919L240.717 102.83H224.415Z" fill="#010202"/>
<path d="M258.735 51.3195L261.881 34.1494H278.183L275.037 51.3195H286.763L284.666 63.434H272.94L269.794 81.6534C269.412 83.5612 269.412 84.992 269.603 86.2321C269.794 87.2814 269.984 88.3307 270.652 88.9984C271.319 89.6661 271.891 90.0477 272.749 90.2385C273.607 90.4292 274.656 90.4292 275.895 90.4292C276.562 90.4292 277.611 90.4292 278.66 90.4292C279.708 90.4292 280.757 90.2385 281.615 90.2385L279.327 102.83C278.088 103.021 276.562 103.211 274.751 103.498C272.939 103.784 270.747 103.688 268.268 103.688C266.362 103.688 264.264 103.498 262.167 103.307C260.07 103.116 258.163 102.258 256.733 101.208C255.017 99.9682 253.968 98.2512 253.206 95.7711C252.348 93.2909 252.348 89.9523 253.206 85.7552L257.019 63.7202L258.735 51.3195Z" fill="#010202"/>
<path d="M285.333 102.83L294.294 51.3193H310.596L301.444 102.83H285.333Z" fill="#010202"/>
<path d="M367.605 120L379.713 51.3192H396.015L394.775 58.6642C396.491 56.3748 398.97 54.2762 402.116 52.5592C405.262 50.8422 408.789 50.0791 412.984 50.0791C416.321 50.0791 419.467 50.7468 422.231 52.1777C424.996 53.6085 427.284 55.5163 428.905 57.8057C430.811 60.095 431.86 63.0521 432.718 66.3907C433.385 69.7293 433.385 73.2587 432.718 77.0743C432.051 80.8899 430.811 84.6101 428.905 87.758C426.998 91.0966 424.901 93.8629 422.231 96.343C419.753 98.6324 416.607 100.731 413.461 101.971C410.315 103.402 406.978 104.07 403.641 104.07C399.637 104.07 396.301 103.211 393.822 101.589C391.343 99.9678 389.437 97.7739 388.579 95.4845L384.193 120C384.098 120 367.605 120 367.605 120ZM391.439 77.0743C391.057 78.9821 391.057 80.6038 391.439 82.13C391.82 83.847 392.297 85.0871 393.345 86.3271C394.203 87.5672 395.252 88.4257 396.682 89.0934C398.112 89.7611 399.637 90.1427 401.449 90.1427C403.355 90.1427 404.976 89.7611 406.692 89.0934C408.408 88.4257 409.838 87.3764 411.077 86.3271C412.317 85.2778 413.365 83.847 414.223 82.13C415.081 80.413 415.653 78.7913 416.13 77.0743C416.511 75.3573 416.321 73.7357 416.13 72.0187C415.749 70.3017 415.272 69.0616 414.223 67.8216C413.365 66.5815 412.317 65.723 410.887 65.0553C409.457 64.3875 407.931 64.006 406.12 64.006C404.213 64.006 402.593 64.3875 400.877 65.0553C399.161 65.723 397.731 66.7723 396.491 67.8216C395.252 69.0616 394.203 70.3017 393.155 72.0187C392.297 73.7357 391.629 75.4527 391.439 77.0743Z" fill="#010202"/>
<path d="M437.866 77.0747C438.534 73.2591 439.773 69.9205 441.68 66.5818C443.586 63.2432 445.874 60.4769 448.83 57.9968C451.785 55.5167 455.122 53.6089 458.84 52.178C462.558 50.7472 466.752 49.8887 471.233 49.8887C475.809 49.8887 479.622 50.5564 482.959 52.178C486.296 53.6089 488.774 55.5167 490.872 57.9968C492.969 60.4769 494.208 63.2432 495.066 66.5818C495.734 69.9205 495.734 73.2591 495.066 77.0747C494.399 80.8903 493.16 84.2289 491.253 87.5675C489.346 90.9062 487.058 93.6725 484.103 96.1526C481.148 98.6327 477.811 100.541 474.093 101.971C470.375 103.402 466.18 104.07 461.7 104.07C457.314 104.07 453.31 103.211 450.164 101.971C447.018 100.541 444.349 98.6327 442.252 96.1526C440.154 93.6725 438.915 90.9062 438.057 87.5675C437.294 84.4197 437.294 80.8903 437.866 77.0747ZM454.168 77.0747C453.787 78.9825 453.787 80.6041 454.168 82.3211C454.359 84.0381 455.026 85.2782 455.884 86.5183C456.742 87.7583 457.791 88.6168 459.221 89.4753C460.651 90.143 462.176 90.5246 463.988 90.5246C465.799 90.5246 467.515 90.143 469.231 89.4753C470.947 88.8076 472.377 87.7583 473.616 86.5183C474.856 85.2782 475.904 84.0381 476.953 82.3211C477.811 80.8903 478.383 78.9825 478.86 77.0747C479.241 75.3577 479.241 73.5453 478.86 72.0191C478.478 70.302 478.002 69.062 477.144 67.8219C476.286 66.5819 475.237 65.7233 473.807 64.8648C472.377 64.1971 470.661 63.8155 468.754 63.8155C466.848 63.8155 465.227 64.1971 463.511 64.8648C461.795 65.5326 460.365 66.5819 459.126 67.8219C457.886 69.062 456.838 70.302 455.98 72.0191C455.026 73.5453 454.454 75.4531 454.168 77.0747Z" fill="#010202"/>
<path d="M543.972 51.3195L546.927 34.1494H563.229L560.274 51.3195H572L569.903 63.434H558.177L555.031 81.6534C554.649 83.5612 554.649 84.992 554.84 86.2321C555.031 87.2814 555.221 88.3307 555.889 88.9984C556.556 89.6661 557.128 90.0477 557.986 90.2385C558.844 90.4292 559.702 90.4292 560.941 90.4292C561.609 90.4292 562.657 90.4292 563.706 90.4292C564.755 90.4292 565.803 90.2385 566.661 90.2385L564.373 102.83C563.134 103.021 561.609 103.211 559.797 103.498C557.891 103.688 555.793 103.688 553.315 103.688C551.408 103.688 549.311 103.498 547.213 103.307C545.116 103.116 543.209 102.258 541.779 101.208C540.063 99.9682 539.015 98.2512 538.252 95.771C537.394 93.2909 537.394 89.9523 538.252 85.7551L542.065 63.7202L543.972 51.3195Z" fill="#010202"/>
<path d="M370.752 45.6909C370.084 42.9246 369.036 40.6352 367.224 38.5367C365.508 36.4381 363.03 34.7211 360.36 33.481C357.405 32.241 353.878 31.5732 349.874 31.5732C346.728 31.5732 343.391 31.9548 340.245 32.8133C337.099 33.6718 334.144 34.9119 331.665 36.6289C329.186 38.3459 326.898 40.4445 324.992 43.1154C323.085 45.5955 321.846 48.7433 321.178 52.3681C320.511 55.7068 320.797 58.8546 321.56 61.144C322.418 63.4333 323.848 65.5319 325.754 67.2489C327.661 68.9659 329.949 70.3968 332.428 71.4461C334.906 72.4953 337.671 73.7354 340.626 74.7847C342.056 75.4524 343.391 75.834 344.44 76.5017C345.679 77.1694 346.537 77.551 347.395 78.4095C348.062 79.0772 348.634 79.8403 349.111 80.6988C349.492 81.5574 349.492 82.6066 349.302 83.8467C348.92 85.9453 347.872 87.6623 346.156 89.0931C344.44 90.3332 342.342 91.0009 339.864 91.0009C336.908 91.0009 334.811 90.1424 333.19 88.2346C331.76 86.3268 331.093 83.6559 331.76 80.3173H314.41C313.742 84.3237 313.742 87.853 314.6 91.0009C315.458 94.1488 316.888 96.8197 318.795 98.9182C320.892 101.017 323.371 102.734 326.326 103.688C329.472 104.737 332.809 105.405 336.813 105.405C340.626 105.405 344.154 105.023 347.49 103.974C350.827 102.925 353.973 101.494 356.452 99.586C359.216 97.6782 361.218 95.198 363.125 92.4317C365.032 89.6654 366.08 86.613 366.652 82.9882C367.32 79.4588 367.034 76.3109 365.985 73.7354C364.936 71.2553 363.506 69.1567 361.409 67.4397C359.312 65.7227 357.024 64.2918 354.259 63.0518C351.494 62.0025 348.825 60.7624 346.06 59.7132C343.296 58.6639 341.008 57.4238 339.768 56.1837C338.529 54.9437 338.052 53.4174 338.338 51.605C338.72 49.6973 339.578 48.2664 341.294 47.2171C343.01 46.1678 344.821 45.5001 346.728 45.5001C349.206 45.5001 351.113 46.3586 351.971 47.7895C353.02 49.2203 353.21 51.605 352.829 54.2759H370.275C371.133 51.1281 371.133 48.4572 370.752 45.6909Z" fill="#010202"/>
<path d="M537.966 50.5563C534.153 50.5563 530.625 51.4148 527.479 53.3226C524.333 55.2304 522.045 57.329 520.329 59.8091L521.759 51.4148H505.457L496.496 102.925H512.798L516.325 82.798C517.374 76.5023 519.662 71.9236 522.808 69.3481C525.954 66.5818 529.958 65.3417 534.534 65.3417C535.392 65.3417 535.964 65.3417 536.441 65.5325L539.205 50.4609C538.538 50.5563 538.157 50.5563 537.966 50.5563Z" fill="#010202"/>
</svg>
