<svg viewBox="0 0 451 120" fill="none" xmlns="http://www.w3.org/2000/svg">
<path d="M168.672 29.5664H143.724C142.898 29.5659 142.099 29.8604 141.471 30.397C140.843 30.9335 140.427 31.6768 140.299 32.4929L130.209 96.4847C130.162 96.7817 130.181 97.0851 130.263 97.3742C130.345 97.6633 130.489 97.9312 130.684 98.1594C130.88 98.3876 131.122 98.5707 131.395 98.6961C131.669 98.8215 131.965 98.8862 132.266 98.8857H144.176C145.003 98.8861 145.802 98.591 146.43 98.0538C147.058 97.5165 147.474 96.7723 147.602 95.9556L150.323 78.696C150.451 77.8799 150.866 77.1363 151.493 76.5991C152.121 76.0619 152.919 75.7664 153.745 75.7659H161.643C178.077 75.7659 187.561 67.8112 190.038 52.0477C191.154 45.1511 190.086 39.7324 186.857 35.9375C183.311 31.7704 177.022 29.5664 168.672 29.5664ZM171.55 52.938C170.186 61.8926 163.346 61.8926 156.733 61.8926H152.968L155.609 45.1694C155.686 44.6801 155.936 44.2345 156.312 43.9128C156.689 43.591 157.168 43.4142 157.663 43.4142H159.388C163.893 43.4142 168.143 43.4142 170.339 45.9831C171.649 47.5156 172.05 49.7926 171.55 52.938ZM243.247 52.6497H231.3C230.805 52.6497 230.326 52.8265 229.949 53.1483C229.573 53.47 229.323 53.9156 229.246 54.4049L228.717 57.7473L227.882 56.5359C225.295 52.7811 219.528 51.5259 213.772 51.5259C200.57 51.5259 189.294 61.5277 187.098 75.5579C185.956 82.5566 187.579 89.2488 191.548 93.9158C195.189 98.207 200.398 99.995 206.596 99.995C217.233 99.995 223.132 93.1532 223.132 93.1532L222.6 96.4738C222.552 96.7706 222.57 97.0743 222.651 97.3638C222.732 97.6533 222.875 97.9217 223.07 98.1506C223.265 98.3795 223.507 98.5635 223.779 98.6897C224.052 98.816 224.349 98.8816 224.65 98.8821H235.411C236.238 98.8825 237.037 98.5874 237.665 98.0501C238.293 97.5128 238.709 96.7687 238.837 95.952L245.293 55.0508C245.341 54.7545 245.324 54.4515 245.243 54.1627C245.162 53.8738 245.019 53.606 244.824 53.3777C244.63 53.1494 244.388 52.966 244.116 52.8404C243.843 52.7147 243.547 52.6496 243.247 52.6497ZM226.594 75.9082C225.441 82.7354 220.024 87.3185 213.115 87.3185C209.646 87.3185 206.873 86.2056 205.093 84.0965C203.328 82.002 202.656 79.0208 203.218 75.7002C204.294 68.9314 209.803 64.1987 216.606 64.1987C219.999 64.1987 222.756 65.3262 224.573 67.4536C226.393 69.6028 227.116 72.6023 226.594 75.9082ZM306.874 52.6497H294.869C294.302 52.6506 293.745 52.7897 293.245 53.0549C292.744 53.32 292.316 53.7033 291.998 54.1714L275.44 78.5683L268.421 55.1237C268.206 54.4087 267.766 53.782 267.167 53.3364C266.568 52.8909 265.841 52.6501 265.094 52.6497H253.297C252.966 52.6489 252.639 52.7271 252.344 52.878C252.05 53.0288 251.795 53.248 251.602 53.5171C251.409 53.7863 251.283 54.0976 251.234 54.4253C251.186 54.753 251.216 55.0875 251.323 55.4011L264.547 94.2187L252.115 111.774C251.894 112.085 251.763 112.451 251.736 112.832C251.709 113.213 251.788 113.594 251.963 113.933C252.138 114.272 252.403 114.556 252.729 114.755C253.055 114.953 253.43 115.058 253.811 115.058H265.802C266.362 115.059 266.914 114.924 267.41 114.664C267.906 114.405 268.332 114.029 268.651 113.569L308.581 55.9156C308.798 55.6036 308.925 55.2384 308.948 54.8595C308.972 54.4805 308.892 54.1023 308.716 53.7659C308.54 53.4294 308.275 53.1475 307.95 52.9508C307.626 52.754 307.254 52.6499 306.874 52.6497Z" fill="#253B80"/>
<path d="M346.622 29.5671H321.67C320.845 29.5675 320.047 29.8624 319.419 30.3989C318.792 30.9354 318.377 31.6781 318.248 32.4936L308.158 96.4854C308.111 96.7819 308.129 97.0849 308.21 97.3738C308.292 97.6627 308.435 97.9304 308.63 98.1586C308.825 98.3868 309.067 98.5701 309.339 98.6957C309.612 98.8214 309.908 98.8865 310.208 98.8865H323.012C323.59 98.8856 324.148 98.6786 324.587 98.3027C325.026 97.9267 325.316 97.4066 325.405 96.8357L328.269 78.6967C328.397 77.8806 328.812 77.137 329.439 76.5998C330.067 76.0626 330.865 75.7671 331.691 75.7666H339.585C356.023 75.7666 365.503 67.8119 367.984 52.0484C369.104 45.1518 368.028 39.7331 364.799 35.9382C361.257 31.7711 354.972 29.5671 346.622 29.5671ZM349.5 52.9387C348.139 61.8933 341.299 61.8933 334.682 61.8933H330.921L333.566 45.1701C333.642 44.6808 333.89 44.2348 334.266 43.9129C334.642 43.591 335.121 43.4143 335.616 43.4149H337.341C341.843 43.4149 346.096 43.4149 348.293 45.9838C349.602 47.5164 350 49.7933 349.5 52.9387ZM421.193 52.6505H409.253C408.758 52.6491 408.279 52.8255 407.902 53.1476C407.526 53.4696 407.278 53.916 407.203 54.4056L406.674 57.7481L405.835 56.5366C403.249 52.7818 397.485 51.5266 391.728 51.5266C378.527 51.5266 367.254 61.5284 365.058 75.5586C363.92 82.5573 365.536 89.2495 369.505 93.9166C373.153 98.2077 378.355 99.9957 384.553 99.9957C395.19 99.9957 401.089 93.1539 401.089 93.1539L400.556 96.4745C400.509 96.772 400.526 97.0762 400.608 97.3663C400.69 97.6563 400.833 97.9251 401.029 98.1541C401.225 98.3831 401.468 98.5669 401.741 98.6927C402.015 98.8186 402.313 98.8834 402.614 98.8828H413.372C414.197 98.8823 414.996 98.5869 415.623 98.0496C416.251 97.5124 416.666 96.7688 416.793 95.9527L423.254 55.0515C423.3 54.7543 423.281 54.4508 423.198 54.1617C423.115 53.8726 422.971 53.6048 422.775 53.3767C422.58 53.1486 422.337 52.9655 422.064 52.8402C421.79 52.7148 421.493 52.6501 421.193 52.6505ZM404.54 75.9089C403.395 82.7361 397.97 87.3192 391.061 87.3192C387.599 87.3192 384.819 86.2063 383.039 84.0972C381.273 82.0027 380.61 79.0215 381.164 75.7009C382.247 68.9321 387.749 64.1994 394.552 64.1994C397.944 64.1994 400.702 65.3269 402.519 67.4543C404.347 69.6035 405.069 72.603 404.54 75.9089ZM435.277 31.3223L425.038 96.4854C424.991 96.7819 425.009 97.0849 425.09 97.3738C425.172 97.6627 425.315 97.9304 425.509 98.1586C425.704 98.3868 425.946 98.5701 426.219 98.6957C426.491 98.8214 426.788 98.8865 427.088 98.8865H437.382C439.093 98.8865 440.545 97.6458 440.808 95.9563L450.905 31.9681C450.952 31.6715 450.934 31.3683 450.853 31.0793C450.771 30.7902 450.628 30.5222 450.433 30.2938C450.239 30.0653 449.997 29.8817 449.724 29.7556C449.452 29.6296 449.155 29.564 448.855 29.5635H437.328C436.833 29.5652 436.355 29.7432 435.979 30.0655C435.603 30.3877 435.355 30.8333 435.277 31.3223Z" fill="#179BD7"/>
<path d="M26.6037 111.322L28.5116 99.2002L24.2617 99.1017H3.96832L18.0712 9.6547C18.1132 9.38139 18.252 9.13228 18.4622 8.95278C18.6725 8.77327 18.9402 8.67532 19.2167 8.67677H53.4342C64.7939 8.67677 72.6333 11.0413 76.7262 15.7083C78.645 17.8977 79.8671 20.1856 80.4581 22.7034C81.0782 25.3452 81.0892 28.5016 80.4836 32.3512L80.4398 32.6322V35.0989L82.3586 36.1863C83.8235 36.9286 85.1402 37.9328 86.2437 39.1493C87.8852 41.0212 88.9468 43.4003 89.3955 46.2209C89.8588 49.1219 89.7056 52.5738 88.9468 56.4818C88.0713 60.9773 86.6559 64.8927 84.7444 68.0965C83.0578 70.9665 80.7902 73.4523 78.0869 75.3944C75.548 77.197 72.5311 78.5653 69.1203 79.4411C65.8153 80.3022 62.047 80.7365 57.9139 80.7365H55.2509C53.3467 80.7365 51.4972 81.4225 50.0453 82.6522C48.5955 83.895 47.6337 85.6122 47.3312 87.498L47.1306 88.589L43.7599 109.954L43.6067 110.738C43.5666 110.986 43.4973 111.11 43.3951 111.194C43.2962 111.275 43.1727 111.32 43.0449 111.322H26.6037Z" fill="#253B80"/>
<path d="M84.1753 32.917C84.0732 33.5702 83.9564 34.2379 83.8251 34.9239C79.3126 58.0985 63.8746 66.1043 44.1576 66.1043H34.1185C31.7072 66.1043 29.6753 67.8558 29.2995 70.2349L24.1596 102.842L22.7041 112.085C22.6461 112.451 22.6682 112.826 22.769 113.184C22.8697 113.541 23.0466 113.872 23.2876 114.154C23.5285 114.437 23.8278 114.663 24.1647 114.819C24.5017 114.974 24.8683 115.055 25.2394 115.055H43.0449C45.1534 115.055 46.9446 113.523 47.2765 111.443L47.4516 110.538L50.8041 89.257L51.0193 88.0893C51.3476 86.0021 53.1424 84.4695 55.2509 84.4695H57.9139C75.1649 84.4695 88.6696 77.4635 92.6166 57.1899C94.2655 48.7206 93.4119 41.649 89.049 36.6754C87.6661 35.1369 86.0146 33.8633 84.1753 32.917Z" fill="#179BD7"/>
<path d="M79.4549 31.0335C78.0141 30.6166 76.5483 30.2912 75.0664 30.0593C72.1383 29.6091 69.179 29.3932 66.2166 29.4134H39.397C38.3763 29.4126 37.389 29.7771 36.6136 30.441C35.8382 31.1049 35.3258 32.0243 35.169 33.0332L29.4637 69.1798L29.2995 70.2343C29.4773 69.0836 30.0609 68.0346 30.9448 67.277C31.8286 66.5193 32.9544 66.1031 34.1184 66.1037H44.1575C63.8746 66.1037 79.3126 58.0942 83.8251 34.9233C83.9601 34.2373 84.0732 33.5696 84.1753 32.9164C82.9846 32.2918 81.7436 31.7682 80.4654 31.351C80.1303 31.2398 79.7934 31.134 79.4549 31.0335Z" fill="#222D65"/>
<path d="M35.1687 33.0338C35.3241 32.0247 35.8363 31.1048 36.6121 30.4412C37.3879 29.7777 38.3759 29.4145 39.3967 29.4177H66.2162C69.3936 29.4177 72.3593 29.6257 75.0661 30.0635C76.8978 30.3515 78.7041 30.7822 80.4687 31.3516C81.8002 31.7931 83.0368 32.3149 84.1786 32.917C85.5211 24.3529 84.1677 18.5219 79.5385 13.2418C74.435 7.42902 65.224 4.94043 53.4375 4.94043H19.22C16.8123 4.94043 14.7586 6.69193 14.3865 9.0747L0.13402 99.4412C0.0676342 99.8608 0.0928917 100.29 0.208055 100.699C0.323218 101.107 0.525553 101.487 0.801143 101.81C1.07673 102.133 1.41904 102.392 1.80451 102.571C2.18998 102.749 2.60947 102.841 3.03412 102.842H24.1593L29.4634 69.1804L35.1687 33.0338Z" fill="#253B80"/>
</svg>
