<svg viewBox="0 0 240 120" fill="none" xmlns="http://www.w3.org/2000/svg">
<path d="M222.356 25.1376L208.061 25.1326C206.502 25.1326 205.238 26.399 205.237 27.9615V29.9597H206.228C212.683 29.9597 215.083 31.0265 215.083 36.918V45.2933L222.348 45.2958C223.908 45.2967 225.171 44.0311 225.172 42.4686L225.177 27.9673C225.177 26.4048 223.914 25.1384 222.356 25.1376ZM144.341 47.6516C143.682 46.8217 142.434 46.707 141.184 46.707H140.246C137.13 46.707 135.908 47.6699 135.218 50.6659L126.56 86.73C125.479 91.1621 123.961 91.972 121.363 91.972C118.181 91.972 116.907 91.2112 115.64 86.7125L105.833 50.6485C105.021 47.6283 103.824 46.707 100.707 46.707H99.8719C98.6139 46.707 97.3609 46.8234 96.7178 47.6641C96.0739 48.5056 96.2913 49.762 96.6232 50.9969L106.534 87.3736C108.393 94.3353 110.603 100.098 118.859 100.098C120.4 100.098 121.826 99.8833 123.012 99.4825C120.507 107.375 117.96 110.856 110.447 111.629C108.923 111.756 107.932 111.975 107.38 112.717C106.807 113.486 106.937 114.588 107.142 115.571L107.349 116.504C107.797 118.661 108.561 119.998 110.978 119.998C111.231 119.998 111.505 119.985 111.797 119.96C123.015 119.224 129.025 113.172 132.542 99.0717L144.543 50.9711C144.828 49.7371 144.999 48.4807 144.341 47.6516ZM83.9784 75.3594V82.6396C83.9784 88.5743 81.7827 92.0103 70.5586 92.0103C63.1433 92.0103 59.5386 89.3211 59.5386 83.7896C59.5386 77.7235 63.1549 75.3594 72.4365 75.3594H83.9784ZM70.5586 45.1761C64.4395 45.1761 60.6049 45.9453 59.1503 46.2371C56.5753 46.7976 55.4982 47.5061 55.4982 50.4406V51.2771C55.4982 52.4271 55.6683 53.2238 56.0326 53.7842C56.4567 54.437 57.1404 54.7679 58.0649 54.7679C58.5155 54.7679 59.0382 54.6923 59.6614 54.5359C61.1327 54.1676 65.8336 53.4059 70.976 53.4059C80.2119 53.4059 83.9784 55.9695 83.9784 62.2535V67.8614H72.3319C57.3603 67.8614 50.3866 72.9222 50.3866 83.7896C50.3866 94.3303 57.5877 100.135 70.6632 100.135C86.2015 100.135 93.1305 94.8367 93.1305 82.9531V62.2535C93.1305 50.7624 85.7476 45.1761 70.5586 45.1761ZM41.2079 52.1477C41.2079 60.8016 39.0031 65.4915 27.3707 65.4915H9.46491V43.1571C9.46491 40.0604 10.6142 38.9088 13.7044 38.9088H27.3707C36.1344 38.9088 41.2079 41.0757 41.2079 52.1477ZM27.3707 29.9472H11.9303C3.6794 29.9472 0 33.6343 0 41.9031V95.0096C0 98.2036 1.02315 99.2289 4.21131 99.2289H5.25441C8.44174 99.2289 9.46491 98.2036 9.46491 95.0096V74.3483H27.3707C43.2684 74.3483 50.6728 67.2935 50.6728 52.1477C50.6728 37.0012 43.2684 29.9472 27.3707 29.9472ZM223.747 10.1715L216.537 10.1689C215.75 10.1681 215.113 9.52951 215.113 8.7412L215.116 1.42612C215.116 0.637816 215.755 0 216.54 0L223.751 0.00251229C224.537 0.00251229 225.175 0.641972 225.175 1.42944L225.172 8.74453C225.171 9.53283 224.534 10.1715 223.747 10.1715ZM237.894 25.1467L227.277 25.1426C226.12 25.1426 225.181 24.2012 225.182 23.0412L225.185 12.2711C225.186 11.1103 226.126 10.1698 227.283 10.1698L237.899 10.1739C239.058 10.1739 239.996 11.1153 239.996 12.2753L239.992 23.0462C239.992 24.2062 239.053 25.1467 237.894 25.1467ZM208.054 45.2917C206.495 45.2917 205.232 44.0252 205.232 42.4628L205.237 29.9597H204.196C197.742 29.9597 195.341 31.0274 195.341 36.9189V50.705C195.34 50.7341 195.337 50.7632 195.337 50.7923V53.8142C195.335 53.9189 195.329 54.0162 195.329 54.1243V73.387C195.329 75.7395 194.876 77.6129 193.943 79.0681C192.183 81.7856 188.698 83.0205 183.124 83.0279C177.551 83.0205 174.068 81.7865 172.308 79.0715C171.372 77.6154 170.919 75.7411 170.919 73.387V54.1243C170.919 54.0162 170.913 53.9189 170.911 53.8142V50.7923C170.911 50.7632 170.908 50.7341 170.907 50.705V36.9189C170.907 31.0274 168.506 29.9597 162.052 29.9597H160.02C153.565 29.9597 151.165 31.0274 151.165 36.9189V73.387C151.165 79.2536 152.485 84.2204 155.036 88.2243C159.963 95.9826 169.506 100.114 183.074 100.114C183.09 100.114 183.107 100.114 183.124 100.114C183.141 100.114 183.157 100.114 183.174 100.114C196.742 100.114 206.286 95.9826 211.212 88.2243C213.763 84.2204 215.083 79.2536 215.083 73.387V45.2933L208.054 45.2917Z" fill="#A6C307"/>
</svg>
