<svg width="240" height="120" viewBox="0 0 240 120" fill="none" xmlns="http://www.w3.org/2000/svg">
<g clip-path="url(#clip0_266_975)">
<path d="M222.35 25.1376L208.055 25.1326C206.496 25.1326 205.232 26.399 205.231 27.9615L205.231 29.9597H206.222C212.677 29.9597 215.077 31.0265 215.077 36.918V45.2933L222.342 45.2958C223.902 45.2967 225.165 44.0311 225.166 42.4686L225.171 27.9673C225.171 26.4048 223.908 25.1384 222.35 25.1376ZM144.335 47.6516C143.676 46.8217 142.428 46.707 141.178 46.707H140.24C137.124 46.707 135.902 47.6699 135.212 50.6659L126.554 86.73C125.473 91.1621 123.955 91.972 121.357 91.972C118.175 91.972 116.901 91.2112 115.634 86.7125L105.827 50.6485C105.015 47.6283 103.818 46.707 100.701 46.707H99.8661C98.6081 46.707 97.3551 46.8234 96.712 47.6641C96.0681 48.5056 96.2855 49.762 96.6174 50.9969L106.528 87.3736C108.387 94.3353 110.597 100.098 118.853 100.098C120.394 100.098 121.82 99.8833 123.006 99.4825C120.501 107.375 117.954 110.856 110.441 111.629C108.917 111.756 107.926 111.975 107.374 112.717C106.801 113.486 106.931 114.588 107.136 115.571L107.343 116.504C107.791 118.661 108.555 119.998 110.972 119.998C111.225 119.998 111.499 119.985 111.791 119.96C123.009 119.224 129.019 113.172 132.536 99.0717L144.537 50.9711C144.822 49.7371 144.993 48.4807 144.335 47.6516ZM83.9726 75.3594V82.6396C83.9726 88.5743 81.7769 92.0103 70.5528 92.0103C63.1375 92.0103 59.5328 89.3211 59.5328 83.7896C59.5328 77.7235 63.1491 75.3594 72.4307 75.3594H83.9726ZM70.5528 45.1761C64.4337 45.1761 60.5991 45.9453 59.1445 46.2371C56.5695 46.7976 55.4924 47.5061 55.4924 50.4406V51.2771C55.4924 52.4271 55.6625 53.2238 56.0268 53.7842C56.4509 54.437 57.1346 54.7679 58.0591 54.7679C58.5097 54.7679 59.0324 54.6923 59.6556 54.5359C61.1269 54.1676 65.8278 53.4059 70.9702 53.4059C80.2061 53.4059 83.9726 55.9695 83.9726 62.2535V67.8614H72.3261C57.3545 67.8614 50.3808 72.9222 50.3808 83.7896C50.3808 94.3303 57.5819 100.135 70.6574 100.135C86.1957 100.135 93.1247 94.8367 93.1247 82.9531V62.2535C93.1247 50.7624 85.7418 45.1761 70.5528 45.1761ZM41.2021 52.1477C41.2021 60.8016 38.9973 65.4915 27.3649 65.4915H9.45911V43.1571C9.45911 40.0604 10.6084 38.9088 13.6986 38.9088H27.3649C36.1286 38.9088 41.2021 41.0757 41.2021 52.1477ZM27.3649 29.9472H11.9245C3.6736 29.9472 -0.00579834 33.6343 -0.00579834 41.9031V95.0096C-0.00579834 98.2036 1.01735 99.2289 4.20551 99.2289H5.24861C8.43594 99.2289 9.45911 98.2036 9.45911 95.0096V74.3483H27.3649C43.2626 74.3483 50.667 67.2935 50.667 52.1477C50.667 37.0012 43.2626 29.9472 27.3649 29.9472ZM223.741 10.1715L216.531 10.1689C215.744 10.1681 215.107 9.52951 215.107 8.7412L215.11 1.42612C215.11 0.637816 215.749 0 216.534 0L223.745 0.00251229C224.531 0.00251229 225.169 0.641972 225.169 1.42944L225.166 8.74453C225.165 9.53283 224.528 10.1715 223.741 10.1715ZM237.888 25.1467L227.271 25.1426C226.114 25.1426 225.175 24.2012 225.176 23.0412L225.179 12.2711C225.18 11.1103 226.12 10.1698 227.277 10.1698L237.893 10.1739C239.052 10.1739 239.99 11.1153 239.99 12.2753L239.986 23.0462C239.986 24.2062 239.047 25.1467 237.888 25.1467ZM208.048 45.2917C206.489 45.2917 205.226 44.0252 205.226 42.4628L205.231 29.9597H204.19C197.736 29.9597 195.335 31.0274 195.335 36.9189V50.705C195.334 50.7341 195.331 50.7632 195.331 50.7923V53.8142C195.329 53.9189 195.323 54.0162 195.323 54.1243V73.387C195.323 75.7395 194.87 77.6129 193.937 79.0681C192.177 81.7856 188.692 83.0205 183.118 83.0279C177.545 83.0205 174.062 81.7865 172.302 79.0715C171.366 77.6154 170.913 75.7411 170.913 73.387V54.1243C170.913 54.0162 170.907 53.9189 170.905 53.8142V50.7923C170.905 50.7632 170.902 50.7341 170.901 50.705V36.9189C170.901 31.0274 168.5 29.9597 162.046 29.9597H160.014C153.559 29.9597 151.159 31.0274 151.159 36.9189V73.387C151.159 79.2536 152.479 84.2204 155.03 88.2243C159.957 95.9826 169.5 100.114 183.068 100.114C183.084 100.114 183.101 100.114 183.118 100.114C183.135 100.114 183.151 100.114 183.168 100.114C196.736 100.114 206.28 95.9826 211.206 88.2243C213.757 84.2204 215.077 79.2536 215.077 73.387V45.2933L208.048 45.2917Z" fill="#A6C307"/>
</g>
<defs>
<clipPath id="clip0_266_975">
<rect width="240" height="120" fill="white"/>
</clipPath>
</defs>
</svg>
