<svg viewBox="0 0 339 120" fill="none" xmlns="http://www.w3.org/2000/svg">
<path fill-rule="evenodd" clip-rule="evenodd" d="M73.1734 68.732L101.114 68.6963L100.095 75.0534L76.7284 97.357L96.3437 97.3213L95.2004 104.178L66.3134 104.196L67.5281 97.107L89.9303 75.6606H72.0479L73.1734 68.732Z" fill="#D13239"/>
<path fill-rule="evenodd" clip-rule="evenodd" d="M42.607 57.8569C41.9996 57.214 41.1243 56.714 40.1596 56.3211C39.1413 55.9283 38.0158 55.6426 36.9082 55.4461C35.5148 55.1961 34.1571 55.089 33.1924 55.0533C32.2992 55.0176 31.7275 55.0176 31.7275 55.0176H19.5081H10.415L2.2688 104.196H9.87911L12.8804 85.9819L27.6365 86.0533C27.6365 86.0533 33.3889 86.2854 37.462 84.1247C41.5352 81.964 42.6249 77.0533 42.6249 77.0533C42.6249 77.0533 43.0715 75.2319 43.4467 73.0176C43.8575 70.5711 44.2684 67.6426 44.4828 66.089C44.5721 65.4104 44.6257 64.9819 44.6257 64.9819C44.6257 64.9819 44.7329 64.4819 44.7329 63.6962C44.7508 62.6069 44.59 60.964 43.7325 59.3926C43.4288 58.839 43.0715 58.339 42.607 57.8569ZM36.7474 66.5354C36.7474 66.6247 36.0686 70.5711 35.1754 75.2497C34.8359 77.0354 33.4604 77.9997 31.8883 78.339C29.28 78.8926 26.4753 78.7854 26.4753 78.7854L14.1487 78.7497L16.8642 62.4104L28.0295 62.4462C28.0295 62.4462 28.7798 62.4283 29.8339 62.4462C31.0308 62.464 32.6207 62.5176 33.9248 62.6961C35.0503 62.839 35.9435 63.0712 36.2294 63.4283C36.6045 63.8926 36.7474 64.4997 36.801 65.0354C36.8725 65.8212 36.7474 66.4819 36.7474 66.5354Z" fill="#D13239"/>
<path fill-rule="evenodd" clip-rule="evenodd" d="M139.004 55.0176H146.329L138.129 104.196L130.787 104.178L139.004 55.0176Z" fill="#D13239"/>
<path fill-rule="evenodd" clip-rule="evenodd" d="M178.092 68.7323L185.113 68.7144L187.596 93.6787L198.404 68.6787L207.068 68.6966L209.623 93.768L220.413 68.7144H227.702L212.231 104.161H203.585L201.084 79.3394L190.168 104.161L181.665 104.197L178.092 68.7323Z" fill="#D13239"/>
<path d="M125.481 69.018C123.426 68.3573 119.871 68.2145 116.852 68.2502C113.94 68.2859 112.6 68.4287 111.511 68.6609C111.511 68.6609 106.33 69.4109 103.382 73.0537C100.435 76.6966 99.5593 84.6609 99.5593 84.6609C99.5593 84.6609 97.8086 93.4645 98.3267 96.4109C98.8448 99.3395 99.7559 102.072 103.079 103.339C106.401 104.625 109.224 104.554 109.224 104.554C109.224 104.554 115.155 105.018 119.621 103.964C124.087 102.911 126.446 99.768 126.446 99.768C126.446 99.768 127.5 98.4109 128.25 96.8037C129 95.1966 129.232 94.0716 129.268 93.9287L129.733 92.018L122.14 92.0359C122.14 92.0359 121.729 97.0537 117.62 97.518C113.529 97.9823 111.332 97.8037 110.528 97.768C109.742 97.7323 105.347 97.9287 105.705 94.2502C105.705 94.1966 105.705 94.1252 105.723 94.018C105.919 89.8395 106.384 88.7502 106.384 88.7502L130.233 88.6787L131.251 82.7859C132.43 76.1073 131.591 71.018 125.481 69.018ZM123.891 81.9466L107.545 81.9287L108.188 79.3395C108.188 79.3395 108.76 77.3037 109.885 76.4466C111.028 75.5895 112.475 75.4287 113.833 75.3037C115.191 75.1787 118.817 74.9109 121.765 75.518C122.748 75.7145 123.677 76.268 123.927 77.0895C124.498 79.018 123.891 81.9466 123.891 81.9466Z" fill="#D13239"/>
<path d="M105.758 94.0894C105.758 94.1429 105.74 94.1965 105.74 94.2501C105.723 94.5358 105.758 94.0715 105.758 94.0894Z" fill="#D13239"/>
<path d="M150.741 94.1069C150.741 94.1605 150.724 94.2141 150.724 94.2677C150.724 94.5534 150.741 94.0891 150.741 94.1069Z" fill="#D13239"/>
<path d="M170.482 69.0356C168.427 68.3749 164.872 68.232 161.853 68.2678C158.941 68.3035 157.601 68.4463 156.512 68.6785C156.512 68.6785 151.331 69.4285 148.383 73.0713C145.436 76.7142 144.56 84.6785 144.56 84.6785C144.56 84.6785 142.809 93.482 143.328 96.4285C143.846 99.357 144.757 102.089 148.08 103.357C151.402 104.643 154.225 104.571 154.225 104.571C154.225 104.571 160.156 105.036 164.622 103.982C169.088 102.928 171.446 99.7856 171.446 99.7856C171.446 99.7856 172.5 98.4285 173.251 96.8213C174.001 95.2142 174.233 94.0892 174.269 93.9463L174.733 92.0356L167.141 92.0535C167.141 92.0535 166.73 97.0713 162.621 97.5356C158.53 97.9999 156.333 97.8213 155.529 97.8035C154.743 97.7678 150.348 97.9463 150.706 94.2856C150.706 94.232 150.706 94.1606 150.723 94.0535C150.92 89.8749 151.384 88.7856 151.384 88.7856L175.234 88.7142L176.252 82.8213C177.431 76.1249 176.591 71.0178 170.482 69.0356ZM168.82 81.9463L152.474 81.9285L153.117 79.3392C153.117 79.3392 153.689 77.3035 154.814 76.4463C155.94 75.5892 157.405 75.4285 158.763 75.3035C160.12 75.1785 163.747 74.9106 166.694 75.5178C167.677 75.7142 168.606 76.2678 168.856 77.0892C169.428 78.9999 168.82 81.9463 168.82 81.9463Z" fill="#D13239"/>
<path fill-rule="evenodd" clip-rule="evenodd" d="M236.134 68.7327L240.833 94.6613L254.106 68.7148L261.573 68.7863L242.44 105.84C242.44 105.84 238.975 112.554 236.831 114.251C234.687 115.947 233.365 116.715 231.614 116.893C229.864 117.072 229.149 117.197 227.47 116.893L225.683 116.572L226.791 109.947C226.791 109.947 229.756 110.501 231.507 109.804C233.276 109.108 234.687 106.108 234.687 106.108L235.58 104.608L228.667 68.7148L236.134 68.7327Z" fill="#D13239"/>
<path fill-rule="evenodd" clip-rule="evenodd" d="M264.289 72.2505L271.988 72.2683L272.453 69.2862C272.453 69.2862 273.275 63.8933 275.115 62.8576C275.704 62.5183 276.651 62.2148 277.741 62.0183C279.759 61.6612 282.314 61.6255 284.404 61.6969C287.602 61.8041 288.817 61.8398 292.068 62.2148C295.319 62.5898 294.498 65.7326 294.498 65.7326L293.855 70.4291C293.855 70.4291 293.569 72.5362 292.818 73.8398C292.157 75.0005 290.335 75.7862 289.281 76.1255C286.744 76.9469 278.062 79.1612 278.062 79.1612L271.238 81.1255C271.238 81.1255 267.04 82.3398 264.699 84.9291C262.341 87.5362 261.412 90.4826 261.091 92.0183C260.769 93.5541 258.965 104.179 258.965 104.179L295.802 104.197L297.034 96.8398L267.897 96.8755L268.415 93.8755C268.415 93.8755 268.755 90.7862 270.005 89.7683C270.398 89.4469 270.595 89.0183 272.917 88.1969C274.311 87.6969 279.063 86.4291 279.063 86.4291L290.049 83.4291C290.049 83.4291 296.052 81.8933 298.41 78.6076C300.768 75.3398 301.679 69.0719 301.679 69.0719C301.679 69.0719 302.322 62.9826 301.822 61.0719C301.34 59.1612 299.535 56.8755 297.338 55.8933C295.141 54.9112 292.854 54.3398 286.226 54.429C279.599 54.5183 276.311 54.8219 272.953 56.0719C269.594 57.3041 267.647 59.5541 266.415 62.7326C265.075 65.7505 264.289 72.2505 264.289 72.2505Z" fill="#B3B2B1"/>
<path fill-rule="evenodd" clip-rule="evenodd" d="M333.639 85.9286L338.802 55H329.655L301.179 85.5714L299.893 93.3214H324.796L322.974 104.179L330.62 104.196L332.424 93.3214L339.481 93.3393L340.749 85.9286H333.639ZM326.029 85.9464L309.933 85.9286L329.53 65.0536L326.029 85.9464Z" fill="#B3B2B1"/>
<path fill-rule="evenodd" clip-rule="evenodd" d="M58.7566 59.0717H82.2128C82.2128 59.0717 87.465 54.8217 91.1987 52.0896C94.9324 49.3574 101.721 45.0539 101.721 45.0539L88.4654 38.8574C88.4654 38.8574 77.2643 45.786 72.5123 49.0539C67.9033 52.0717 58.7566 59.0717 58.7566 59.0717Z" fill="#B3B2B1"/>
<path fill-rule="evenodd" clip-rule="evenodd" d="M109.17 40.679L98.2909 33.3576C98.2909 33.3576 108.134 27.7683 121.229 22.554C134.306 17.3397 141.291 15.1611 141.291 15.1611L143.506 25.5361C143.506 25.5361 130.912 29.7504 123.694 33.1611C116.227 36.3397 109.17 40.679 109.17 40.679Z" fill="#B3B2B1"/>
<path fill-rule="evenodd" clip-rule="evenodd" d="M151.545 23.2683L149.652 12.6433C149.652 12.6433 163.086 9.07185 175.377 6.78613C187.685 4.50042 203.996 3.41113 203.996 3.41113L198.601 19.8218C198.601 19.8218 184.255 17.8576 170.785 19.6968C160.299 20.9468 151.545 23.2683 151.545 23.2683Z" fill="#B3B2B1"/>
<path fill-rule="evenodd" clip-rule="evenodd" d="M207.14 21.2145L216.215 2.98233C216.215 2.98233 236.098 2.58948 253.248 5.25019C270.398 7.89305 286.083 11.9645 285.744 12.143L242.262 34.8752C242.262 34.8752 232.097 28.4466 219.484 24.5002C212.338 22.393 207.14 21.2145 207.14 21.2145Z" fill="#B3B2B1"/>
<path fill-rule="evenodd" clip-rule="evenodd" d="M250.051 39.8213L259.608 47.0713H338.159C338.159 47.0713 337.998 44.5356 335.908 40.9284C334.604 38.6784 332.228 36.2856 329.744 33.8034C328.833 32.9106 325.225 30.0891 322.509 28.3213C315.578 23.8213 311.701 22.0891 304.502 18.8213L250.051 39.8213Z" fill="#B3B2B1"/>
<path d="M63.848 68.6963C60.9004 68.6963 58.1135 69.857 55.7375 71.1606L56.1484 68.6963H48.3416L42.089 104H49.9137L53.3794 84.4463C54.094 80.482 57.0595 75.5713 62.8476 75.5713L66.885 75.5534L68.0998 68.6963H63.848Z" fill="#D13239"/>
</svg>
