<svg viewBox="0 0 288 120" fill="none" xmlns="http://www.w3.org/2000/svg">
<path fill-rule="evenodd" clip-rule="evenodd" d="M288 62.0025C288 41.4951 278.08 25.3135 259.12 25.3135C240.08 25.3135 228.56 41.4951 228.56 61.8423C228.56 85.9545 242.16 98.1308 261.68 98.1308C271.2 98.1308 278.4 95.9679 283.84 92.9238V76.9024C278.4 79.626 272.16 81.3083 264.24 81.3083C256.48 81.3083 249.6 78.5846 248.72 69.132H287.84C287.84 68.0906 288 63.9251 288 62.0025ZM248.48 54.3923C248.48 45.3402 254 41.5752 259.04 41.5752C263.92 41.5752 269.12 45.3402 269.12 54.3923H248.48Z" fill="#635BFF"/>
<path fill-rule="evenodd" clip-rule="evenodd" d="M197.68 25.3135C189.84 25.3135 184.8 28.9984 182 31.5618L180.96 26.5952H163.36V120L183.36 115.754L183.44 93.084C186.32 95.1668 190.56 98.1308 197.6 98.1308C211.92 98.1308 224.96 86.5953 224.96 61.2014C224.88 37.9704 211.68 25.3135 197.68 25.3135ZM192.88 80.5072C188.16 80.5072 185.36 78.825 183.44 76.7422L183.36 47.0225C185.44 44.6994 188.32 43.0972 192.88 43.0972C200.16 43.0972 205.2 51.2681 205.2 61.7622C205.2 72.4965 200.24 80.5072 192.88 80.5072Z" fill="#635BFF"/>
<path fill-rule="evenodd" clip-rule="evenodd" d="M135.84 20.5875L155.92 16.2617V0L135.84 4.24567V20.5875Z" fill="#635BFF"/>
<path d="M155.92 26.6758H135.84V96.7694H155.92V26.6758Z" fill="#635BFF"/>
<path fill-rule="evenodd" clip-rule="evenodd" d="M114.32 32.6036L113.04 26.6757H95.76V96.7693H115.76V49.2659C120.48 43.0976 128.48 44.2191 130.96 45.1003V26.6757C128.4 25.7144 119.04 23.952 114.32 32.6036Z" fill="#635BFF"/>
<path fill-rule="evenodd" clip-rule="evenodd" d="M74.32 9.29199L54.8 13.4576L54.72 77.6233C54.72 89.4791 63.6 98.2108 75.44 98.2108C82 98.2108 86.8 97.0092 89.44 95.5672V79.3055C86.88 80.3469 74.24 84.0318 74.24 72.176V43.738H89.44V26.6752H74.24L74.32 9.29199Z" fill="#635BFF"/>
<path fill-rule="evenodd" clip-rule="evenodd" d="M20.24 47.0225C20.24 43.8983 22.8 42.6967 27.04 42.6967C33.12 42.6967 40.8 44.5392 46.88 47.8235V28.9984C40.24 26.3549 33.68 25.3135 27.04 25.3135C10.8 25.3135 0 33.8048 0 47.9838C0 70.0933 30.4 66.5686 30.4 76.1013C30.4 79.7862 27.2 80.9879 22.72 80.9879C16.08 80.9879 7.6 78.2642 0.879999 74.5793V93.6448C8.32 96.849 15.84 98.2109 22.72 98.2109C39.36 98.2109 50.8 89.9598 50.8 75.6207C50.72 51.7488 20.24 55.9945 20.24 47.0225Z" fill="#635BFF"/>
</svg>
