<svg viewBox="0 0 402 120" fill="none" xmlns="http://www.w3.org/2000/svg">
<path d="M109.849 75.6692C103.317 75.6692 97.1958 72.9061 91.6342 68.4081L92.9885 62.0583L93.0474 61.823C94.2533 55.0622 98.079 43.7139 109.849 43.7139C118.677 43.7139 125.857 50.8873 125.857 59.7061C125.827 68.4959 118.648 75.6692 109.849 75.6692ZM109.849 27.5163C94.8123 27.5163 83.1601 37.2763 78.4229 53.3273C71.1836 42.4794 65.71 29.4567 62.503 18.4912H46.3185V60.5586C46.3185 68.8488 39.5503 75.6096 31.252 75.6096C22.9537 75.6096 16.1863 68.8488 16.1863 60.5586V18.4912H0.000184574V60.5586C-0.0586964 77.7861 13.9778 91.9257 31.2214 91.9257C48.4657 91.9257 62.5022 77.7861 62.5022 60.5586V53.5037C65.6504 60.059 69.5051 66.6732 74.1842 72.5532L64.267 119.118H80.8346L88.0142 85.3406C94.3114 89.3681 101.55 91.8967 109.849 91.8967C127.592 91.8967 142.041 77.3743 142.041 59.6473C142.041 41.95 127.593 27.5163 109.849 27.5163Z" fill="#6FDA44"/>
<path d="M191.448 29.3388L201.894 71.4063L213.4 29.3388H227.113L209.428 90.1325H195.715L184.857 47.8L174.028 90.1027H160.315L142.629 29.3098H156.342L167.847 71.3772L178.294 29.3098H191.447V29.3396L191.448 29.3388ZM259.923 27.5161C242.12 27.5161 227.701 41.9498 227.701 59.7059C227.701 77.4918 242.149 91.8965 259.923 91.8965C277.726 91.8965 292.174 77.4918 292.174 59.7059C292.174 41.9208 277.726 27.5161 259.923 27.5161ZM259.923 78.6674C249.447 78.6674 240.972 70.2008 240.972 59.7357C240.972 49.2698 249.476 40.8039 259.923 40.8039C270.399 40.8039 278.873 49.2698 278.873 59.7357C278.873 70.1718 270.399 78.6674 259.923 78.6674ZM331.34 42.9498C322.13 42.9498 314.685 50.4165 314.685 59.5882V90.1027H300.884V29.3388H314.685V38.687C314.685 38.687 320.57 29.309 332.664 29.309H336.902V42.9498H331.34ZM377.658 57.3545C387.455 51.8274 394.107 41.3325 394.107 29.309H380.305C380.305 39.451 372.066 47.6823 361.914 47.6823H360.06V0H346.26V90.1019H360.06V61.4698H361.709C363.062 61.4698 364.828 62.3521 365.622 63.4392L385.219 90.1027H401.757L377.658 57.3545Z" fill="black"/>
</svg>
