<svg viewBox="0 0 527 120" fill="none" xmlns="http://www.w3.org/2000/svg">
<path d="M293.604 1.68H325.987L309.675 118.32H277.293L293.604 1.68ZM252.586 1.68L230.757 68.88L221.162 1.68H198.375L169.59 68.64L166.232 1.92H134.568L145.603 118.56H171.749L203.892 44.64L215.166 118.32H240.832L283.289 1.68H252.586ZM525.321 69.6H448.322C448.802 84.72 457.677 94.8 471.11 94.8C481.184 94.8 489.1 89.52 495.337 79.2L521.483 90.96C512.128 108.48 493.418 120 470.15 120C438.487 120 417.378 98.64 417.378 64.32C417.378 26.64 442.085 0 477.106 0C507.81 0 527 20.64 527 53.04C527 58.32 526.52 63.84 525.321 69.6ZM496.296 47.28C496.296 33.84 488.62 25.2 476.627 25.2C464.153 25.2 453.599 34.08 450.96 47.28H496.296ZM33.1024 36.96L0 75.6H59.2485L65.965 57.36H40.5385L56.1302 39.36V38.88L46.0555 21.6H91.3914L56.1302 118.32H80.1174L122.575 1.68H12.9531L33.1024 36.96ZM378.759 25.2C390.273 25.2 400.347 31.44 408.983 42L413.54 9.12C405.385 3.6 394.35 0.24 379.718 0.24C350.694 0.24 334.382 17.28 334.382 38.88C334.382 53.76 342.778 63.12 356.451 68.88L362.927 71.76C375.161 77.04 378.519 79.68 378.519 85.2C378.519 90.96 373.002 94.56 364.606 94.56C350.694 94.56 339.42 87.6 331.024 75.36L326.227 108.96C335.822 116.4 348.295 120.24 364.606 120.24C392.192 120.24 409.223 104.4 409.223 82.08C409.223 66.96 402.506 57.36 385.715 49.68L378.519 46.32C368.444 42 365.086 39.36 365.086 34.56C365.326 29.28 369.883 25.2 378.759 25.2Z" fill="#163300"/>
</svg>
