<svg width="255" height="37" viewBox="0 0 255 37" fill="none" xmlns="http://www.w3.org/2000/svg">
<g clip-path="url(#clip0_244_259)">
<mask id="mask0_244_259" style="mask-type:luminance" maskUnits="userSpaceOnUse" x="0" y="0" width="255" height="37">
<path d="M255 0H0V37H255V0Z" fill="white"/>
</mask>
<g mask="url(#mask0_244_259)">
<path d="M114.007 8.53603C114.155 8.12135 114.383 7.80839 114.712 7.59714C115.033 7.38589 115.393 7.28418 115.785 7.28418C116.286 7.28418 116.717 7.44066 117.077 7.75362C117.438 8.06659 117.626 8.48126 117.626 9.00547C117.626 9.19325 117.571 9.46709 117.469 9.81918L110.764 28.3935C110.599 28.8082 110.325 29.129 109.941 29.3637C109.557 29.5906 109.134 29.7079 108.68 29.7079C108.226 29.7079 107.795 29.5906 107.403 29.3637C107.011 29.1368 106.737 28.816 106.588 28.3935L101.411 13.6921L96.1387 28.3935C95.9742 28.8082 95.7 29.129 95.3162 29.3637C94.9324 29.5984 94.5094 29.7079 94.055 29.7079C93.6007 29.7079 93.1777 29.5906 92.7939 29.3637C92.41 29.1368 92.1437 28.816 91.9949 28.3935L85.2895 9.81918C85.1876 9.50621 85.1328 9.2402 85.1328 9.00547C85.1328 8.48909 85.3208 8.06659 85.7125 7.75362C86.0963 7.44066 86.5507 7.28418 87.0677 7.28418C87.4828 7.28418 87.8588 7.38589 88.1878 7.59714C88.5247 7.80839 88.7597 8.12135 88.9085 8.53603L94.2117 23.8008L99.6716 8.62992C99.8204 8.21524 100.055 7.88663 100.392 7.64409C100.721 7.40154 101.089 7.28418 101.481 7.28418C101.873 7.28418 102.241 7.40154 102.586 7.64409C102.93 7.87881 103.173 8.22307 103.322 8.66121L108.625 23.9886L114.022 8.53603H114.007ZM122.984 29.481C122.381 29.481 121.911 29.3167 121.566 28.9803C121.221 28.6439 121.049 28.1823 121.049 27.572V9.38103C121.049 8.77858 121.221 8.30913 121.566 7.98052C121.911 7.64409 122.381 7.47978 122.984 7.47978H134.24C134.843 7.47978 135.313 7.61279 135.642 7.88663C135.971 8.16047 136.144 8.54385 136.144 9.04459C136.144 9.54533 135.979 9.96783 135.642 10.2495C135.306 10.5312 134.843 10.672 134.24 10.672H124.981V16.7278H133.621C134.225 16.7278 134.695 16.8608 135.024 17.1347C135.353 17.4085 135.525 17.7997 135.525 18.3239C135.525 18.8481 135.36 19.2081 135.024 19.4819C134.695 19.7557 134.225 19.8887 133.621 19.8887H124.981V26.3201H134.24C134.843 26.3201 135.313 26.461 135.642 26.7426C135.971 27.0243 136.144 27.4233 136.144 27.9475C136.144 28.4717 135.979 28.8317 135.642 29.1055C135.306 29.3793 134.843 29.5123 134.24 29.5123H122.984V29.481ZM141.353 29.481C140.75 29.481 140.28 29.3167 139.935 28.9803C139.59 28.6439 139.418 28.1823 139.418 27.572V9.38103C139.418 8.77858 139.59 8.30913 139.935 7.98052C140.28 7.64409 140.75 7.47978 141.353 7.47978H152.61C153.213 7.47978 153.683 7.61279 154.012 7.88663C154.341 8.16047 154.513 8.54385 154.513 9.04459C154.513 9.54533 154.349 9.96783 154.012 10.2495C153.683 10.5312 153.213 10.672 152.61 10.672H143.35V16.7278H151.983C152.586 16.7278 153.056 16.8608 153.385 17.1347C153.714 17.4085 153.886 17.7997 153.886 18.3239C153.886 18.8481 153.722 19.2081 153.385 19.4819C153.056 19.7557 152.586 19.8887 151.983 19.8887H143.35V26.3201H152.61C153.213 26.3201 153.683 26.461 154.012 26.7426C154.341 27.0243 154.513 27.4233 154.513 27.9475C154.513 28.4717 154.349 28.8317 154.012 29.1055C153.683 29.3793 153.213 29.5123 152.61 29.5123H141.353V29.481ZM174.653 26.6096C174.982 27.0086 175.154 27.3998 175.154 27.7989C175.154 28.2996 174.966 28.7378 174.574 29.1133C174.191 29.4889 173.752 29.6767 173.25 29.6767C172.749 29.6767 172.271 29.4498 171.88 28.9881L165.55 21.1171L159.19 28.9881C158.814 29.4263 158.367 29.6454 157.85 29.6454C157.333 29.6454 156.91 29.4654 156.526 29.0977C156.142 28.7299 155.947 28.2996 155.947 27.7989C155.947 27.3842 156.103 26.9852 156.417 26.6096L163.216 18.3083L156.699 10.3434C156.385 10.0148 156.229 9.61575 156.229 9.15413C156.229 8.65339 156.417 8.22307 156.793 7.85534C157.169 7.48761 157.607 7.30765 158.101 7.30765C158.594 7.30765 159.08 7.53455 159.472 7.99617L165.55 15.5229L171.629 7.99617C172.005 7.53455 172.451 7.30765 172.968 7.30765C173.485 7.30765 173.909 7.48761 174.292 7.85534C174.676 8.21524 174.872 8.65339 174.872 9.15413C174.872 9.60793 174.715 10.007 174.402 10.3434L167.885 18.3083L174.653 26.6096ZM180.269 29.6688C179.666 29.6688 179.18 29.4889 178.82 29.1211C178.46 28.7534 178.272 28.2605 178.272 27.6346V9.38103C178.272 8.77858 178.444 8.30913 178.789 7.98052C179.133 7.64409 179.603 7.47978 180.207 7.47978H187.875C190.225 7.47978 192.051 8.06659 193.367 9.24802C194.683 10.4295 195.333 12.0725 195.333 14.1928C195.333 16.3131 194.675 17.9719 193.367 19.1611C192.058 20.3504 190.225 20.9372 187.875 20.9372H182.298V27.6502C182.298 28.2761 182.118 28.7691 181.75 29.1368C181.389 29.4967 180.896 29.6845 180.269 29.6845M187.374 17.8545C190.139 17.8545 191.518 16.6496 191.518 14.2319C191.518 11.8143 190.131 10.6094 187.374 10.6094H182.29V17.8545H187.374ZM200.777 29.4967C200.174 29.4967 199.704 29.3324 199.359 28.996C199.014 28.6595 198.842 28.1979 198.842 27.5876V9.38103C198.842 8.77858 199.014 8.30913 199.359 7.98052C199.704 7.64409 200.174 7.47978 200.777 7.47978H212.034C212.637 7.47978 213.107 7.61279 213.436 7.88663C213.765 8.16047 213.937 8.54385 213.937 9.04459C213.937 9.54533 213.773 9.96783 213.436 10.2495C213.107 10.5312 212.637 10.672 212.034 10.672H202.775V16.7278H211.407C212.01 16.7278 212.48 16.8608 212.809 17.1347C213.138 17.4085 213.31 17.7997 213.31 18.3239C213.31 18.8481 213.146 19.2081 212.809 19.4819C212.472 19.7557 212.01 19.8887 211.407 19.8887H202.775V26.3201H212.034C212.637 26.3201 213.107 26.461 213.436 26.7426C213.765 27.0243 213.937 27.4233 213.937 27.9475C213.937 28.4717 213.773 28.8317 213.436 29.1055C213.107 29.3793 212.637 29.5123 212.034 29.5123H200.777V29.4967ZM234.797 26.9695C235.048 27.3451 235.173 27.7128 235.173 28.0649C235.173 28.5422 234.985 28.9412 234.594 29.2542C234.21 29.5671 233.756 29.7236 233.239 29.7236C232.91 29.7236 232.588 29.6454 232.291 29.4889C231.985 29.3324 231.735 29.0977 231.531 28.7847L227.387 22.4785C226.972 21.8135 226.533 21.344 226.063 21.0702C225.593 20.7963 224.99 20.6633 224.238 20.6633H221.183V27.658C221.183 28.284 221.011 28.7769 220.65 29.1446C220.298 29.5045 219.82 29.6923 219.217 29.6923C218.614 29.6923 218.128 29.5123 217.768 29.1446C217.407 28.7769 217.219 28.284 217.219 27.658V9.38103C217.219 8.77858 217.392 8.30913 217.736 7.98052C218.081 7.64409 218.551 7.47978 219.154 7.47978H226.948C229.439 7.47978 231.343 8.03529 232.635 9.15413C233.936 10.2651 234.586 11.8769 234.586 13.9738C234.586 15.6794 234.1 17.0799 233.137 18.1753C232.173 19.2706 230.802 19.9748 229.04 20.28C229.643 20.4286 230.176 20.6868 230.63 21.0624C231.084 21.4379 231.531 21.9543 231.97 22.6272L234.805 26.9695H234.797ZM226.376 17.5728C227.896 17.5728 229.008 17.2833 229.714 16.7122C230.419 16.141 230.771 15.2569 230.771 14.0755C230.771 12.894 230.419 11.9864 229.714 11.4388C229.008 10.8832 227.896 10.6094 226.376 10.6094H221.136V17.5728H226.376ZM245.459 29.6532C244.832 29.6532 244.338 29.4732 243.978 29.1055C243.618 28.7378 243.43 28.2605 243.43 27.6502V10.7894H237.758C236.513 10.7894 235.886 10.2339 235.886 9.13066C235.886 8.02747 236.513 7.47978 237.758 7.47978H253.127C254.373 7.47978 255 8.02747 255 9.13066C255 10.2339 254.373 10.7894 253.127 10.7894H247.456V27.6502C247.456 28.2527 247.276 28.7378 246.908 29.1055C246.547 29.4654 246.062 29.6532 245.459 29.6532Z" fill="#0416A8"/>
<path fill-rule="evenodd" clip-rule="evenodd" d="M64.6098 37H44.8461C41.9243 37 39.5508 34.6371 39.5508 31.7109C39.5508 28.7847 41.9165 26.4219 44.8461 26.4219H64.6098C67.5316 26.4219 69.9051 28.7847 69.9051 31.7109C69.9051 34.6371 67.5394 37 64.6098 37Z" fill="#0416A8"/>
<path fill-rule="evenodd" clip-rule="evenodd" d="M64.6098 23.7852H44.8461C41.9243 23.7852 39.5508 21.4223 39.5508 18.4961C39.5508 15.5699 41.9165 13.207 44.8461 13.207H64.6098C67.5316 13.207 69.9051 15.5699 69.9051 18.4961C69.9051 21.4223 67.5394 23.7852 64.6098 23.7852Z" fill="#0416A8"/>
<path fill-rule="evenodd" clip-rule="evenodd" d="M64.6098 10.5703H44.8461C41.9243 10.5703 39.5508 8.20746 39.5508 5.28126C39.5508 2.35506 41.9165 -0.0078125 44.8461 -0.0078125H64.6098C67.5316 -0.0078125 69.9051 2.35506 69.9051 5.28126C69.9051 8.20746 67.5394 10.5703 64.6098 10.5703Z" fill="#0416A8"/>
<path fill-rule="evenodd" clip-rule="evenodd" d="M0 31.7109V5.28907C0 2.36287 2.36568 0 5.29536 0C8.22505 0 10.5907 2.36287 10.5907 5.28907V31.7109C10.5907 34.6293 8.22505 37 5.29536 37C2.36568 37 0 34.6371 0 31.7109Z" fill="#0416A8"/>
<path fill-rule="evenodd" clip-rule="evenodd" d="M13.2305 31.7109V5.28907C13.2305 2.36287 15.5962 0 18.518 0C21.4399 0 23.8134 2.36287 23.8134 5.28907V31.7109C23.8134 34.6293 21.4477 37 18.518 37C15.5883 37 13.2227 34.6371 13.2227 31.7109" fill="#0416A8"/>
<path fill-rule="evenodd" clip-rule="evenodd" d="M26.461 31.7109V5.28907C26.461 2.36287 28.8266 0 31.7485 0C34.6703 0 37.0439 2.36287 37.0439 5.28907V31.7109C37.0439 34.6293 34.6782 37 31.7485 37C28.8188 37 26.4531 34.6371 26.4531 31.7109" fill="#0416A8"/>
</g>
</g>
<defs>
<clipPath id="clip0_244_259">
<rect width="255" height="37" fill="white"/>
</clipPath>
</defs>
</svg>
