<svg width="582" height="297" viewBox="0 0 582 297" fill="none" xmlns="http://www.w3.org/2000/svg">
<path d="M0 240.563V89.4053H90.695V119.637H120.926V210.331H90.695V240.563H0ZM30.231 149.868H89.485V119.637H30.231V149.868ZM30.231 210.331H89.485V180.1H30.231V210.331Z" fill="#4D47A4"/>
<path d="M142.693 240.563V89.4053H172.924V240.563H142.693Z" fill="#4D47A4"/>
<path d="M255.154 149.868V119.637H194.691V89.4053H285.386V149.868H255.154ZM224.923 180.1V149.868H255.154V180.1H224.923ZM194.691 240.563V180.1H224.923V210.331H285.386V240.563H194.691Z" fill="#4D47A4"/>
<path d="M348.937 151.158V120.926H318.705V0H348.937V120.926H409.4V151.158H348.937ZM409.4 120.926V0H439.632V120.926H409.4Z" fill="#FFD84E"/>
<path d="M460.117 185.292V34.1338H550.812V64.3648H581.044V94.5968H550.812V124.829H490.349V185.292H460.117ZM490.349 94.5968H549.603V64.3648H490.349V94.5968Z" fill="#FFD84E"/>
<path d="M100.422 278.014H106.761C108.365 278.014 109.622 278.451 110.532 279.325C111.441 280.198 111.896 281.366 111.896 282.828C111.896 283.951 111.619 284.834 111.066 285.476C110.532 286.118 109.836 286.572 108.98 286.84V286.92C110.032 287.169 110.897 287.642 111.575 288.337C112.252 289.015 112.591 290.004 112.591 291.306C112.591 292.055 112.466 292.759 112.216 293.419C111.967 294.078 111.61 294.649 111.147 295.13C110.701 295.612 110.166 295.995 109.542 296.28C108.936 296.548 108.276 296.681 107.563 296.681H100.422V278.014ZM106.894 294.729C107.929 294.729 108.74 294.497 109.328 294.034C109.916 293.57 110.211 292.857 110.211 291.894V290.798C110.211 289.853 109.916 289.149 109.328 288.685C108.74 288.204 107.929 287.963 106.894 287.963H102.669V294.729H106.894ZM106.52 286.118C107.465 286.118 108.205 285.913 108.74 285.502C109.275 285.075 109.542 284.433 109.542 283.577V282.534C109.542 281.678 109.275 281.036 108.74 280.608C108.205 280.18 107.465 279.967 106.52 279.967H102.669V286.118H106.52Z" fill="#232323"/>
<path d="M124.374 278.014V289.22C124.374 290.129 124.401 290.94 124.455 291.653C124.508 292.367 124.651 292.982 124.882 293.499C125.114 293.998 125.471 294.381 125.952 294.649C126.451 294.916 127.138 295.05 128.011 295.05C128.885 295.05 129.563 294.916 130.044 294.649C130.543 294.381 130.909 293.998 131.14 293.499C131.372 292.982 131.515 292.367 131.568 291.653C131.622 290.94 131.649 290.129 131.649 289.22V278.014H133.895V288.685C133.895 290.076 133.824 291.288 133.681 292.322C133.556 293.356 133.28 294.221 132.852 294.916C132.442 295.612 131.845 296.138 131.06 296.494C130.294 296.833 129.277 297.002 128.011 297.002C126.746 297.002 125.72 296.833 124.936 296.494C124.169 296.138 123.572 295.612 123.144 294.916C122.734 294.221 122.458 293.356 122.315 292.322C122.19 291.288 122.128 290.076 122.128 288.685V278.014H124.374Z" fill="#232323"/>
<path d="M149.877 297.002C148.201 297.002 146.829 296.699 145.759 296.093C144.689 295.469 143.807 294.676 143.111 293.713L144.743 292.376C145.474 293.285 146.24 293.962 147.043 294.408C147.863 294.854 148.834 295.077 149.958 295.077C151.313 295.077 152.347 294.765 153.06 294.141C153.773 293.517 154.13 292.643 154.13 291.52C154.13 290.61 153.871 289.906 153.354 289.407C152.837 288.89 151.937 288.524 150.653 288.311L148.567 287.963C147.658 287.802 146.891 287.562 146.267 287.241C145.661 286.92 145.17 286.537 144.796 286.091C144.422 285.627 144.154 285.128 143.994 284.593C143.833 284.04 143.753 283.47 143.753 282.882C143.753 281.17 144.315 279.877 145.438 279.004C146.561 278.13 148.077 277.693 149.984 277.693C151.482 277.693 152.739 277.943 153.755 278.442C154.789 278.941 155.618 279.646 156.242 280.555L154.664 281.919C154.147 281.241 153.523 280.689 152.792 280.261C152.061 279.833 151.116 279.619 149.958 279.619C148.692 279.619 147.72 279.886 147.043 280.421C146.365 280.956 146.026 281.758 146.026 282.828C146.026 283.666 146.276 284.352 146.775 284.887C147.292 285.404 148.21 285.779 149.53 286.011L151.535 286.358C152.445 286.519 153.211 286.759 153.835 287.08C154.459 287.401 154.959 287.785 155.333 288.23C155.725 288.676 156.002 289.175 156.162 289.728C156.323 290.281 156.403 290.86 156.403 291.466C156.403 293.196 155.832 294.551 154.691 295.531C153.568 296.512 151.963 297.002 149.877 297.002Z" fill="#232323"/>
<path d="M166.074 296.681V294.889H170.727V279.806H166.074V278.014H177.627V279.806H172.973V294.889H177.627V296.681H166.074Z" fill="#232323"/>
<path d="M190.106 280.956H189.918V296.681H187.886V278.014H191.068L197.433 293.739H197.621V278.014H199.653V296.681H196.471L190.106 280.956Z" fill="#232323"/>
<path d="M210.073 296.681V278.014H221.572V279.967H212.319V286.251H221.252V288.204H212.319V294.729H221.572V296.681H210.073Z" fill="#232323"/>
<path d="M237.555 297.002C235.879 297.002 234.506 296.699 233.436 296.093C232.366 295.469 231.484 294.676 230.789 293.713L232.42 292.376C233.151 293.285 233.918 293.962 234.72 294.408C235.54 294.854 236.512 295.077 237.635 295.077C238.99 295.077 240.024 294.765 240.737 294.141C241.45 293.517 241.807 292.643 241.807 291.52C241.807 290.61 241.548 289.906 241.031 289.407C240.514 288.89 239.614 288.524 238.33 288.311L236.244 287.963C235.335 287.802 234.568 287.562 233.944 287.241C233.338 286.92 232.848 286.537 232.473 286.091C232.099 285.627 231.832 285.128 231.671 284.593C231.511 284.04 231.43 283.47 231.43 282.882C231.43 281.17 231.992 279.877 233.115 279.004C234.239 278.13 235.754 277.693 237.662 277.693C239.159 277.693 240.416 277.943 241.433 278.442C242.467 278.941 243.296 279.646 243.92 280.555L242.342 281.919C241.825 281.241 241.201 280.689 240.47 280.261C239.739 279.833 238.794 279.619 237.635 279.619C236.369 279.619 235.397 279.886 234.72 280.421C234.042 280.956 233.704 281.758 233.704 282.828C233.704 283.666 233.953 284.352 234.452 284.887C234.969 285.404 235.888 285.779 237.207 286.011L239.213 286.358C240.122 286.519 240.889 286.759 241.513 287.08C242.137 287.401 242.636 287.785 243.01 288.23C243.403 288.676 243.679 289.175 243.839 289.728C244 290.281 244.08 290.86 244.08 291.466C244.08 293.196 243.51 294.551 242.369 295.531C241.245 296.512 239.641 297.002 237.555 297.002Z" fill="#232323"/>
<path d="M259.474 297.002C257.798 297.002 256.425 296.699 255.356 296.093C254.286 295.469 253.403 294.676 252.708 293.713L254.339 292.376C255.07 293.285 255.837 293.962 256.639 294.408C257.459 294.854 258.431 295.077 259.554 295.077C260.909 295.077 261.943 294.765 262.657 294.141C263.37 293.517 263.726 292.643 263.726 291.52C263.726 290.61 263.468 289.906 262.951 289.407C262.434 288.89 261.533 288.524 260.25 288.311L258.164 287.963C257.254 287.802 256.488 287.562 255.864 287.241C255.257 286.92 254.767 286.537 254.393 286.091C254.018 285.627 253.751 285.128 253.59 284.593C253.43 284.04 253.35 283.47 253.35 282.882C253.35 281.17 253.911 279.877 255.035 279.004C256.158 278.13 257.673 277.693 259.581 277.693C261.079 277.693 262.336 277.943 263.352 278.442C264.386 278.941 265.215 279.646 265.839 280.555L264.261 281.919C263.744 281.241 263.12 280.689 262.389 280.261C261.658 279.833 260.713 279.619 259.554 279.619C258.288 279.619 257.317 279.886 256.639 280.421C255.962 280.956 255.623 281.758 255.623 282.828C255.623 283.666 255.873 284.352 256.372 284.887C256.889 285.404 257.807 285.779 259.126 286.011L261.132 286.358C262.041 286.519 262.808 286.759 263.432 287.08C264.056 287.401 264.555 287.785 264.93 288.23C265.322 288.676 265.598 289.175 265.759 289.728C265.919 290.281 265.999 290.86 265.999 291.466C265.999 293.196 265.429 294.551 264.288 295.531C263.165 296.512 261.56 297.002 259.474 297.002Z" fill="#232323"/>
<path d="M297.59 296.681V294.889H302.243V279.806H297.59V278.014H309.143V279.806H304.489V294.889H309.143V296.681H297.59Z" fill="#232323"/>
<path d="M321.622 280.956H321.434V296.681H319.402V278.014H322.584L328.949 293.739H329.137V278.014H331.169V296.681H327.987L321.622 280.956Z" fill="#232323"/>
<path d="M347.82 297.002C345.538 297.002 343.835 296.173 342.712 294.515C341.607 292.857 341.054 290.468 341.054 287.348C341.054 284.228 341.607 281.839 342.712 280.18C343.835 278.522 345.538 277.693 347.82 277.693C348.676 277.693 349.416 277.809 350.04 278.041C350.664 278.273 351.199 278.585 351.644 278.977C352.09 279.369 352.464 279.815 352.768 280.314C353.071 280.796 353.338 281.286 353.57 281.785L351.644 282.668C351.484 282.258 351.297 281.874 351.083 281.518C350.869 281.143 350.61 280.822 350.307 280.555C350.022 280.27 349.674 280.047 349.264 279.886C348.872 279.726 348.391 279.646 347.82 279.646C346.34 279.646 345.235 280.207 344.504 281.33C343.791 282.454 343.434 283.951 343.434 285.823V288.872C343.434 290.744 343.791 292.242 344.504 293.365C345.235 294.488 346.34 295.05 347.82 295.05C348.391 295.05 348.872 294.97 349.264 294.809C349.674 294.649 350.022 294.435 350.307 294.167C350.61 293.882 350.869 293.561 351.083 293.205C351.297 292.83 351.484 292.438 351.644 292.028L353.57 292.91C353.338 293.427 353.071 293.927 352.768 294.408C352.464 294.889 352.09 295.326 351.644 295.719C351.199 296.111 350.664 296.423 350.04 296.655C349.416 296.886 348.676 297.002 347.82 297.002Z" fill="#232323"/>
<path d="M365.487 278.014V289.22C365.487 290.129 365.514 290.94 365.567 291.653C365.621 292.367 365.763 292.982 365.995 293.499C366.227 293.998 366.584 294.381 367.065 294.649C367.564 294.916 368.251 295.05 369.124 295.05C369.998 295.05 370.675 294.916 371.157 294.649C371.656 294.381 372.021 293.998 372.253 293.499C372.485 292.982 372.628 292.367 372.681 291.653C372.735 290.94 372.761 290.129 372.761 289.22V278.014H375.008V288.685C375.008 290.076 374.937 291.288 374.794 292.322C374.669 293.356 374.393 294.221 373.965 294.916C373.555 295.612 372.957 296.138 372.173 296.494C371.406 296.833 370.39 297.002 369.124 297.002C367.858 297.002 366.833 296.833 366.049 296.494C365.282 296.138 364.685 295.612 364.257 294.916C363.847 294.221 363.57 293.356 363.428 292.322C363.303 291.288 363.241 290.076 363.241 288.685V278.014H365.487Z" fill="#232323"/>
<path d="M385.374 278.014H391.712C393.317 278.014 394.574 278.451 395.483 279.325C396.392 280.198 396.847 281.366 396.847 282.828C396.847 283.951 396.571 284.834 396.018 285.476C395.483 286.118 394.788 286.572 393.932 286.84V286.92C394.984 287.169 395.849 287.642 396.526 288.337C397.204 289.015 397.542 290.004 397.542 291.306C397.542 292.055 397.417 292.759 397.168 293.419C396.918 294.078 396.562 294.649 396.098 295.13C395.652 295.612 395.118 295.995 394.494 296.28C393.887 296.548 393.228 296.681 392.514 296.681H385.374V278.014ZM391.846 294.729C392.88 294.729 393.691 294.497 394.28 294.034C394.868 293.57 395.162 292.857 395.162 291.894V290.798C395.162 289.853 394.868 289.149 394.28 288.685C393.691 288.204 392.88 287.963 391.846 287.963H387.62V294.729H391.846ZM391.471 286.118C392.416 286.118 393.156 285.913 393.691 285.502C394.226 285.075 394.494 284.433 394.494 283.577V282.534C394.494 281.678 394.226 281.036 393.691 280.608C393.156 280.18 392.416 279.967 391.471 279.967H387.62V286.118H391.471Z" fill="#232323"/>
<path d="M417.804 296.681L416.226 291.359H409.673L408.096 296.681H405.769L411.492 278.014H414.461L420.184 296.681H417.804ZM413.07 280.394H412.829L410.208 289.407H415.691L413.07 280.394Z" fill="#232323"/>
<path d="M436.005 279.967V296.681H433.759V279.967H427.528V278.014H442.237V279.967H436.005Z" fill="#232323"/>
<path d="M456.802 297.002C455.661 297.002 454.68 296.788 453.86 296.36C453.04 295.915 452.362 295.282 451.827 294.462C451.292 293.641 450.9 292.634 450.651 291.44C450.401 290.245 450.276 288.881 450.276 287.348C450.276 285.832 450.401 284.477 450.651 283.283C450.9 282.07 451.292 281.054 451.827 280.234C452.362 279.414 453.04 278.79 453.86 278.362C454.68 277.916 455.661 277.693 456.802 277.693C457.943 277.693 458.923 277.916 459.743 278.362C460.564 278.79 461.241 279.414 461.776 280.234C462.311 281.054 462.703 282.07 462.953 283.283C463.202 284.477 463.327 285.832 463.327 287.348C463.327 288.881 463.202 290.245 462.953 291.44C462.703 292.634 462.311 293.641 461.776 294.462C461.241 295.282 460.564 295.915 459.743 296.36C458.923 296.788 457.943 297.002 456.802 297.002ZM456.802 295.05C457.55 295.05 458.183 294.907 458.7 294.622C459.217 294.319 459.645 293.9 459.984 293.365C460.323 292.83 460.564 292.188 460.706 291.44C460.867 290.673 460.947 289.817 460.947 288.872V285.823C460.947 284.896 460.867 284.049 460.706 283.283C460.564 282.516 460.323 281.865 459.984 281.33C459.645 280.796 459.217 280.386 458.7 280.1C458.183 279.797 457.55 279.646 456.802 279.646C456.053 279.646 455.42 279.797 454.903 280.1C454.386 280.386 453.958 280.796 453.619 281.33C453.28 281.865 453.031 282.516 452.87 283.283C452.728 284.049 452.656 284.896 452.656 285.823V288.872C452.656 289.817 452.728 290.673 452.87 291.44C453.031 292.188 453.28 292.83 453.619 293.365C453.958 293.9 454.386 294.319 454.903 294.622C455.42 294.907 456.053 295.05 456.802 295.05Z" fill="#232323"/>
<path d="M475.351 296.681H473.105V278.014H479.898C481.627 278.014 482.946 278.487 483.856 279.432C484.765 280.377 485.22 281.696 485.22 283.39C485.22 284.905 484.827 286.118 484.043 287.027C483.258 287.936 482.117 288.462 480.62 288.605L485.38 296.681H482.866L478.32 288.712H475.351V296.681ZM479.844 286.813C480.789 286.813 481.52 286.581 482.037 286.118C482.572 285.636 482.839 284.959 482.839 284.085V282.694C482.839 281.821 482.572 281.152 482.037 280.689C481.52 280.207 480.789 279.967 479.844 279.967H475.351V286.813H479.844Z" fill="#232323"/>
</svg>
