<svg width="689" height="258" viewBox="0 0 689 258" fill="none" xmlns="http://www.w3.org/2000/svg">
<path fill-rule="evenodd" clip-rule="evenodd" d="M328.042 38.279V0H366.461L383.196 28.21H458.346L689 257.921H57.631L0 212.247V73.889H88.39L117.931 98.874V73.889H156.35L160.904 85.473V73.889H249.293L253.087 81.557V0H291.506L328.042 38.279Z" fill="#232323"/>
<path fill-rule="evenodd" clip-rule="evenodd" d="M88.39 98.8737H113.374V187.262H88.39V212.247H0V73.8887H88.39V98.8737ZM38.42 173.829H73.957V162.278H38.42V173.829ZM38.42 123.859H73.957V112.308H38.42V123.859Z" fill="#232323"/>
<path d="M156.349 212.247H117.93V73.8887H156.349V212.247Z" fill="#232323"/>
<path d="M249.293 137.292H224.307V162.278H199.323V173.829H249.293V212.247H160.904V148.844H185.89V123.859H210.874V112.308H160.904V73.8887H249.293V137.292Z" fill="#232323"/>
<path fill-rule="evenodd" clip-rule="evenodd" d="M458.346 53.195H483.332V91.612H458.346V116.598H408.376V166.568H369.957V28.209H458.346V53.195ZM408.376 78.179H443.913V66.628H408.376V78.179Z" fill="#232323"/>
<path fill-rule="evenodd" clip-rule="evenodd" d="M291.506 99.94H328.042V0H366.461V113.373H341.476V138.359H278.072V113.373H253.087V0H291.506V99.94Z" fill="#232323"/>
<path d="M6.71777 205.529V80.6035H81.6728V105.589H106.658V180.544H81.6728V205.529H6.71777ZM31.7028 130.574H80.6728V105.589H31.7028V130.574ZM31.7028 180.544H80.6728V155.559H31.7028V180.544Z" fill="#7C70FF"/>
<path d="M124.647 205.529V80.6035H149.632V205.529H124.647Z" fill="#7C70FF"/>
<path d="M217.591 130.574V105.589H167.621V80.6035H242.576V130.574H217.591ZM192.606 155.559V130.574H217.591V155.559H192.606ZM167.621 205.529V155.559H192.606V180.544H242.576V205.529H167.621Z" fill="#7C70FF"/>
<path d="M284.789 131.64V106.655H259.804V6.71484H284.789V106.655H334.759V131.64H284.789ZM334.759 106.655V6.71484H359.743V106.655H334.759Z" fill="#FFE675"/>
<path d="M376.674 159.851V34.9258H451.629V59.9108H476.614V84.8958H451.629V109.881H401.659V159.851H376.674ZM401.659 84.8958H450.63V59.9108H401.659V84.8958Z" fill="#FFE675"/>
<path d="M258.657 181.834H266.334C268.351 181.834 269.912 182.355 271.017 183.395C272.142 184.436 272.705 185.859 272.705 187.664C272.705 188.96 272.387 189.99 271.749 190.754C271.112 191.519 270.252 192.06 269.169 192.379V192.538C270.465 192.835 271.505 193.409 272.291 194.258C273.077 195.087 273.47 196.265 273.47 197.794C273.47 198.708 273.321 199.547 273.024 200.311C272.726 201.076 272.302 201.745 271.749 202.318C271.197 202.87 270.528 203.306 269.743 203.624C268.978 203.921 268.128 204.07 267.194 204.07H258.657V181.834ZM266.111 201.33C267.3 201.33 268.213 201.086 268.851 200.598C269.488 200.109 269.806 199.324 269.806 198.24V197.094C269.806 196.01 269.488 195.225 268.851 194.736C268.213 194.248 267.3 194.004 266.111 194.004H262.161V201.33H266.111ZM265.601 191.391C266.727 191.391 267.576 191.179 268.15 190.754C268.744 190.308 269.042 189.576 269.042 188.556V187.409C269.042 186.39 268.744 185.668 268.15 185.243C267.576 184.797 266.727 184.574 265.601 184.574H262.161V191.391H265.601Z" fill="#FFE675"/>
<path d="M280.243 181.834V195.501C280.243 196.414 280.264 197.242 280.306 197.986C280.37 198.729 280.529 199.366 280.784 199.897C281.039 200.407 281.421 200.8 281.931 201.076C282.441 201.352 283.142 201.49 284.034 201.49C284.926 201.49 285.626 201.352 286.136 201.076C286.646 200.8 287.028 200.407 287.283 199.897C287.538 199.366 287.686 198.729 287.729 197.986C287.793 197.242 287.824 196.414 287.824 195.501V181.834H291.392V194.864C291.392 196.456 291.297 197.858 291.106 199.069C290.936 200.258 290.585 201.256 290.054 202.063C289.523 202.849 288.77 203.444 287.793 203.847C286.837 204.251 285.584 204.452 284.034 204.452C282.483 204.452 281.22 204.251 280.243 203.847C279.287 203.444 278.544 202.849 278.013 202.063C277.482 201.256 277.121 200.258 276.93 199.069C276.76 197.858 276.675 196.456 276.675 194.864V181.834H280.243Z" fill="#FFE675"/>
<path d="M302.307 204.453C300.374 204.453 298.749 204.114 297.433 203.434C296.116 202.754 295.033 201.852 294.183 200.726L296.477 198.528C297.326 199.548 298.229 200.301 299.185 200.79C300.14 201.257 301.223 201.491 302.434 201.491C303.836 201.491 304.908 201.172 305.652 200.535C306.416 199.898 306.798 198.985 306.798 197.795C306.798 196.84 306.522 196.107 305.97 195.597C305.418 195.066 304.473 194.684 303.135 194.451L300.714 194.068C299.652 193.898 298.76 193.622 298.038 193.24C297.316 192.836 296.732 192.369 296.286 191.838C295.84 191.286 295.511 190.681 295.298 190.023C295.107 189.343 295.012 188.631 295.012 187.888C295.012 185.786 295.691 184.193 297.05 183.11C298.41 182.005 300.278 181.453 302.657 181.453C304.42 181.453 305.917 181.74 307.149 182.313C308.402 182.865 309.411 183.651 310.175 184.671L307.945 186.901C307.329 186.157 306.597 185.563 305.747 185.117C304.919 184.649 303.889 184.416 302.657 184.416C301.34 184.416 300.332 184.703 299.631 185.276C298.951 185.828 298.611 186.646 298.611 187.729C298.611 188.642 298.877 189.364 299.408 189.895C299.96 190.405 300.926 190.776 302.307 191.01L304.664 191.424C306.66 191.785 308.115 192.518 309.028 193.622C309.941 194.705 310.398 196.033 310.398 197.604C310.398 198.624 310.218 199.558 309.857 200.408C309.517 201.257 308.996 201.979 308.296 202.574C307.616 203.169 306.766 203.636 305.747 203.976C304.749 204.294 303.602 204.453 302.307 204.453Z" fill="#FFE675"/>
<path d="M313.954 204.07V201.362H319.178V184.542H313.954V181.834H327.97V184.542H322.746V201.362H327.97V204.07H313.954Z" fill="#FFE675"/>
<path d="M335.572 186.963H335.285V204.07H332.163V181.834H336.75L343.281 198.941H343.567V181.834H346.689V204.07H342.102L335.572 186.963Z" fill="#FFE675"/>
<path d="M351.073 204.07V181.834H364.994V184.829H354.641V191.296H364.612V194.29H354.641V201.076H364.994V204.07H351.073Z" fill="#FFE675"/>
<path d="M376.163 204.453C374.231 204.453 372.606 204.114 371.289 203.434C369.973 202.754 368.89 201.852 368.04 200.726L370.334 198.528C371.183 199.548 372.086 200.301 373.041 200.79C373.997 201.257 375.08 201.491 376.291 201.491C377.692 201.491 378.765 201.172 379.508 200.535C380.273 199.898 380.655 198.985 380.655 197.795C380.655 196.84 380.379 196.107 379.827 195.597C379.275 195.066 378.33 194.684 376.992 194.451L374.571 194.068C373.509 193.898 372.617 193.622 371.895 193.24C371.173 192.836 370.589 192.369 370.143 191.838C369.697 191.286 369.367 190.681 369.155 190.023C368.964 189.343 368.868 188.631 368.868 187.888C368.868 185.786 369.548 184.193 370.907 183.11C372.266 182.005 374.135 181.453 376.514 181.453C378.277 181.453 379.774 181.74 381.006 182.313C382.259 182.865 383.267 183.651 384.032 184.671L381.802 186.901C381.186 186.157 380.453 185.563 379.604 185.117C378.776 184.649 377.746 184.416 376.514 184.416C375.197 184.416 374.188 184.703 373.487 185.276C372.808 185.828 372.468 186.646 372.468 187.729C372.468 188.642 372.734 189.364 373.264 189.895C373.817 190.405 374.783 190.776 376.163 191.01L378.521 191.424C380.517 191.785 381.972 192.518 382.885 193.622C383.798 194.705 384.255 196.033 384.255 197.604C384.255 198.624 384.074 199.558 383.713 200.408C383.374 201.257 382.853 201.979 382.152 202.574C381.473 203.169 380.623 203.636 379.604 203.976C378.606 204.294 377.459 204.453 376.163 204.453Z" fill="#FFE675"/>
<path d="M394.628 204.453C392.695 204.453 391.07 204.114 389.754 203.434C388.437 202.754 387.354 201.852 386.504 200.726L388.798 198.528C389.647 199.548 390.55 200.301 391.506 200.79C392.461 201.257 393.544 201.491 394.755 201.491C396.157 201.491 397.229 201.172 397.972 200.535C398.737 199.898 399.119 198.985 399.119 197.795C399.119 196.84 398.843 196.107 398.291 195.597C397.739 195.066 396.794 194.684 395.456 194.451L393.035 194.068C391.973 193.898 391.081 193.622 390.359 193.24C389.637 192.836 389.053 192.369 388.607 191.838C388.161 191.286 387.832 190.681 387.619 190.023C387.428 189.343 387.332 188.631 387.332 187.888C387.332 185.786 388.012 184.193 389.371 183.11C390.73 182.005 392.599 181.453 394.978 181.453C396.741 181.453 398.238 181.74 399.47 182.313C400.723 182.865 401.732 183.651 402.496 184.671L400.266 186.901C399.65 186.157 398.918 185.563 398.068 185.117C397.24 184.649 396.21 184.416 394.978 184.416C393.661 184.416 392.652 184.703 391.952 185.276C391.272 185.828 390.932 186.646 390.932 187.729C390.932 188.642 391.198 189.364 391.729 189.895C392.281 190.405 393.247 190.776 394.628 191.01L396.985 191.424C398.981 191.785 400.436 192.518 401.349 193.622C402.262 194.705 402.719 196.033 402.719 197.604C402.719 198.624 402.539 199.558 402.178 200.408C401.838 201.257 401.317 201.979 400.617 202.574C399.937 203.169 399.087 203.636 398.068 203.976C397.07 204.294 395.923 204.453 394.628 204.453Z" fill="#FFE675"/>
<path d="M424.739 204.07V201.362H429.963V184.542H424.739V181.834H438.755V184.542H433.531V201.362H438.755V204.07H424.739Z" fill="#FFE675"/>
<path d="M446.357 186.963H446.07V204.07H442.948V181.834H447.535L454.066 198.941H454.353V181.834H457.475V204.07H452.887L446.357 186.963Z" fill="#FFE675"/>
<path d="M469.313 204.453C466.488 204.453 464.386 203.455 463.005 201.459C461.646 199.463 460.966 196.627 460.966 192.953C460.966 189.279 461.646 186.444 463.005 184.448C464.386 182.451 466.488 181.453 469.313 181.453C470.396 181.453 471.33 181.602 472.116 181.899C472.923 182.175 473.613 182.568 474.187 183.078C474.76 183.566 475.238 184.15 475.62 184.83C476.024 185.488 476.353 186.2 476.608 186.964L473.39 188.047C473.22 187.538 473.029 187.06 472.817 186.614C472.604 186.168 472.339 185.786 472.02 185.467C471.702 185.148 471.32 184.894 470.874 184.703C470.449 184.511 469.918 184.416 469.281 184.416C467.709 184.416 466.562 185.021 465.84 186.232C465.118 187.421 464.757 189.035 464.757 191.074V194.833C464.757 196.872 465.118 198.496 465.84 199.707C466.562 200.896 467.709 201.491 469.281 201.491C469.918 201.491 470.449 201.395 470.874 201.204C471.32 201.013 471.702 200.758 472.02 200.44C472.339 200.121 472.604 199.739 472.817 199.293C473.029 198.847 473.22 198.369 473.39 197.859L476.608 198.942C476.353 199.707 476.024 200.429 475.62 201.108C475.238 201.767 474.76 202.351 474.187 202.861C473.613 203.349 472.923 203.742 472.116 204.039C471.33 204.315 470.396 204.453 469.313 204.453Z" fill="#FFE675"/>
<path d="M483.349 181.834V195.501C483.349 196.414 483.37 197.242 483.412 197.986C483.476 198.729 483.635 199.366 483.89 199.897C484.145 200.407 484.527 200.8 485.037 201.076C485.547 201.352 486.248 201.49 487.14 201.49C488.032 201.49 488.732 201.352 489.242 201.076C489.752 200.8 490.134 200.407 490.389 199.897C490.644 199.366 490.793 198.729 490.835 197.986C490.899 197.242 490.931 196.414 490.931 195.501V181.834H494.498V194.864C494.498 196.456 494.403 197.858 494.212 199.069C494.042 200.258 493.691 201.256 493.16 202.063C492.63 202.849 491.876 203.444 490.899 203.847C489.943 204.251 488.69 204.452 487.14 204.452C485.589 204.452 484.326 204.251 483.349 203.847C482.393 203.444 481.65 202.849 481.119 202.063C480.588 201.256 480.227 200.258 480.036 199.069C479.866 197.858 479.781 196.456 479.781 194.864V181.834H483.349Z" fill="#FFE675"/>
<path d="M498.691 181.834H506.368C508.386 181.834 509.947 182.355 511.051 183.395C512.177 184.436 512.74 185.859 512.74 187.664C512.74 188.96 512.421 189.99 511.784 190.754C511.147 191.519 510.287 192.06 509.204 192.379V192.538C510.499 192.835 511.54 193.409 512.326 194.258C513.111 195.087 513.504 196.265 513.504 197.794C513.504 198.708 513.356 199.547 513.058 200.311C512.761 201.076 512.336 201.745 511.784 202.318C511.232 202.87 510.563 203.306 509.777 203.624C509.012 203.921 508.163 204.07 507.229 204.07H498.691V181.834ZM506.145 201.33C507.335 201.33 508.248 201.086 508.885 200.598C509.522 200.109 509.841 199.324 509.841 198.24V197.094C509.841 196.01 509.522 195.225 508.885 194.736C508.248 194.248 507.335 194.004 506.145 194.004H502.195V201.33H506.145ZM505.636 191.391C506.761 191.391 507.611 191.179 508.184 190.754C508.779 190.308 509.076 189.576 509.076 188.556V187.409C509.076 186.39 508.779 185.668 508.184 185.243C507.611 184.797 506.761 184.574 505.636 184.574H502.195V191.391H505.636Z" fill="#FFE675"/>
<path d="M529.229 204.07L527.54 198.145H520.468L518.78 204.07H515.148L521.647 181.834H526.521L533.02 204.07H529.229ZM524.132 185.434H523.877L521.137 195.182H526.871L524.132 185.434Z" fill="#FFE675"/>
<path d="M544.315 184.829V204.07H540.747V184.829H533.771V181.834H551.293V184.829H544.315Z" fill="#FFE675"/>
<path d="M560.996 204.453C559.595 204.453 558.374 204.199 557.333 203.689C556.314 203.158 555.464 202.404 554.784 201.427C554.126 200.45 553.638 199.25 553.319 197.827C553 196.404 552.841 194.78 552.841 192.953C552.841 191.148 553 189.534 553.319 188.111C553.638 186.667 554.126 185.456 554.784 184.48C555.464 183.503 556.314 182.759 557.333 182.25C558.374 181.719 559.595 181.453 560.996 181.453C562.398 181.453 563.609 181.719 564.628 182.25C565.669 182.759 566.518 183.503 567.177 184.48C567.856 185.456 568.355 186.667 568.674 188.111C568.992 189.534 569.152 191.148 569.152 192.953C569.152 194.78 568.992 196.404 568.674 197.827C568.355 199.25 567.856 200.45 567.177 201.427C566.518 202.404 565.669 203.158 564.628 203.689C563.609 204.199 562.398 204.453 560.996 204.453ZM560.996 201.491C562.589 201.491 563.715 200.896 564.373 199.707C565.032 198.496 565.361 196.861 565.361 194.801V191.074C565.361 189.035 565.032 187.421 564.373 186.232C563.715 185.021 562.589 184.416 560.996 184.416C559.404 184.416 558.278 185.021 557.62 186.232C556.961 187.421 556.632 189.035 556.632 191.074V194.833C556.632 196.872 556.961 198.496 557.62 199.707C558.278 200.896 559.404 201.491 560.996 201.491Z" fill="#FFE675"/>
<path d="M576.116 204.07H572.58V181.834H580.894C583.018 181.834 584.632 182.429 585.736 183.618C586.862 184.808 587.425 186.443 587.425 188.524C587.425 190.223 587.011 191.625 586.182 192.729C585.354 193.834 584.165 194.513 582.614 194.768L587.743 204.07H583.793L579.078 195.087H576.116V204.07ZM580.384 192.22C582.593 192.22 583.697 191.211 583.697 189.193V187.823C583.697 185.806 582.593 184.797 580.384 184.797H576.116V192.22H580.384Z" fill="#FFE675"/>
</svg>
