<svg width="689" height="258" viewBox="0 0 689 258" fill="none" xmlns="http://www.w3.org/2000/svg">
<path fill-rule="evenodd" clip-rule="evenodd" d="M328.042 38.279V0H366.461L383.196 28.21H458.346L689 257.921H57.631L0 212.247V73.889H88.39L117.931 98.874V73.889H156.35L160.904 85.473V73.889H249.293L253.087 81.557V0H291.506L328.042 38.279Z" fill="#4E47A4"/>
<path fill-rule="evenodd" clip-rule="evenodd" d="M88.39 98.8737H113.374V187.262H88.39V212.247H0V73.8887H88.39V98.8737ZM38.42 173.829H73.957V162.278H38.42V173.829ZM38.42 123.859H73.957V112.308H38.42V123.859Z" fill="#4E47A4"/>
<path d="M156.349 212.247H117.93V73.8887H156.349V212.247Z" fill="#4E47A4"/>
<path d="M249.293 137.292H224.307V162.278H199.323V173.829H249.293V212.247H160.904V148.844H185.89V123.859H210.874V112.308H160.904V73.8887H249.293V137.292Z" fill="#4E47A4"/>
<path fill-rule="evenodd" clip-rule="evenodd" d="M458.346 53.196H483.332V91.6129H458.346V116.599H408.376V166.569H369.957V28.21H458.346V53.196ZM408.376 78.18H443.913V66.629H408.376V78.18Z" fill="#4E47A4"/>
<path fill-rule="evenodd" clip-rule="evenodd" d="M291.506 99.94H328.042V0H366.461V113.373H341.476V138.359H278.072V113.373H253.087V0H291.506V99.94Z" fill="#4E47A4"/>
<path d="M6.71777 205.529V80.6035H81.6728V105.589H106.658V180.544H81.6728V205.529H6.71777ZM31.7028 130.574H80.6728V105.589H31.7028V130.574ZM31.7028 180.544H80.6728V155.559H31.7028V180.544Z" fill="#FFE675"/>
<path d="M124.647 205.529V80.6035H149.632V205.529H124.647Z" fill="#FFE675"/>
<path d="M217.591 130.574V105.589H167.621V80.6035H242.576V130.574H217.591ZM192.606 155.559V130.574H217.591V155.559H192.606ZM167.621 205.529V155.559H192.606V180.544H242.576V205.529H167.621Z" fill="#FFE675"/>
<path d="M284.789 131.64V106.655H259.804V6.71484H284.789V106.655H334.759V131.64H284.789ZM334.759 106.655V6.71484H359.743V106.655H334.759Z" fill="white"/>
<path d="M376.674 159.85V34.9248H451.629V59.9098H476.614V84.8948H451.629V109.88H401.659V159.85H376.674ZM401.659 84.8948H450.63V59.9098H401.659V84.8948Z" fill="white"/>
</svg>
