<svg width="90" height="51" viewBox="0 0 90 51" fill="none" xmlns="http://www.w3.org/2000/svg">
<path d="M68.6923 0V5.15204H85.4447V9.71513H90V50.992H64.1369V51H52.5775V50.992H0V13.4943H48.0221V0H68.6923Z" fill="#FFD84D"/>
<path d="M1.22485 37.5359V14.7207H14.8904V19.2838H19.4457V32.9728H14.8904V37.5359H1.22485ZM5.77999 23.8467H14.7083V19.2838H5.77999V23.8467ZM5.77999 32.9728H14.7083V28.4098H5.77999V32.9728Z" fill="#4E47A4"/>
<path d="M22.7255 37.5359V14.7207H27.2807V37.5359H22.7255Z" fill="#4E47A4"/>
<path d="M39.6709 23.8467V19.2838H30.5605V14.7207H44.2262V23.8467H39.6709ZM35.1158 28.4098V23.8467H39.6709V28.4098H35.1158ZM30.5605 37.5359V28.4098H35.1158V32.9728H44.2262V37.5359H30.5605Z" fill="#4E47A4"/>
<path d="M53.8019 24.0407V19.4777H49.2466V1.22559H53.8019V19.4777H62.9123V24.0407H53.8019ZM62.9123 19.4777V1.22559H67.4676V19.4777H62.9123Z" fill="#4E47A4"/>
<path d="M70.5543 29.1941V6.37891H84.22V10.9418H88.7753V15.5049H84.22V20.068H75.1096V29.1941H70.5543ZM75.1096 15.5049H84.0378V10.9418H75.1096V15.5049Z" fill="#4E47A4"/>
<path d="M16.3562 43.1885H17.3113C17.553 43.1885 17.7424 43.2544 17.8796 43.3864C18.0165 43.5181 18.0851 43.6944 18.0851 43.9151C18.0851 44.0846 18.0433 44.2179 17.96 44.3148C17.8796 44.4117 17.7747 44.4802 17.6457 44.5206V44.5327C17.8042 44.5703 17.9346 44.6417 18.0367 44.7466C18.1387 44.8489 18.1898 44.9982 18.1898 45.1947C18.1898 45.3078 18.171 45.414 18.1333 45.5136C18.0958 45.6131 18.042 45.6993 17.9722 45.7719C17.905 45.8446 17.8244 45.9025 17.7304 45.9455C17.6391 45.9859 17.5396 46.006 17.4322 46.006H16.3562V43.1885ZM17.3314 45.7114C17.4873 45.7114 17.6095 45.6764 17.6981 45.6065C17.7867 45.5364 17.8312 45.4288 17.8312 45.2835V45.118C17.8312 44.9754 17.7867 44.8691 17.6981 44.7991C17.6095 44.7265 17.4873 44.6901 17.3314 44.6901H16.6948V45.7114H17.3314ZM17.275 44.4117C17.4174 44.4117 17.5289 44.3807 17.6095 44.3187C17.6902 44.2542 17.7304 44.1573 17.7304 44.0281V43.8707C17.7304 43.7415 17.6902 43.6446 17.6095 43.58C17.5289 43.5154 17.4174 43.4833 17.275 43.4833H16.6948V44.4117H17.275Z" fill="#4E47A4"/>
<path d="M19.9653 43.1885V44.8799C19.9653 45.0171 19.9693 45.1395 19.9775 45.2471C19.9854 45.3549 20.007 45.4477 20.0418 45.5257C20.0768 45.601 20.1305 45.6588 20.203 45.6993C20.2782 45.7396 20.3817 45.7598 20.5133 45.7598C20.645 45.7598 20.7471 45.7396 20.8196 45.6993C20.8948 45.6588 20.9499 45.601 20.9847 45.5257C21.0197 45.4477 21.0412 45.3549 21.0492 45.2471C21.0574 45.1395 21.0614 45.0171 21.0614 44.8799V43.1885H21.3999V44.7991C21.3999 45.0091 21.3892 45.192 21.3676 45.3481C21.3488 45.5041 21.3072 45.6347 21.2427 45.7396C21.1809 45.8447 21.091 45.924 20.9727 45.9778C20.8573 46.0289 20.704 46.0545 20.5133 46.0545C20.3227 46.0545 20.1681 46.0289 20.0499 45.9778C19.9344 45.924 19.8444 45.8447 19.7799 45.7396C19.7181 45.6347 19.6766 45.5041 19.655 45.3481C19.6362 45.192 19.6268 45.0091 19.6268 44.7991V43.1885H19.9653Z" fill="#4E47A4"/>
<path d="M23.808 46.055C23.5555 46.055 23.3487 46.0093 23.1875 45.9178C23.0263 45.8237 22.8934 45.704 22.7885 45.5586L23.0344 45.3568C23.1446 45.494 23.26 45.5962 23.381 45.6635C23.5045 45.7308 23.6508 45.7645 23.8202 45.7645C24.0244 45.7645 24.1802 45.7174 24.2876 45.6232C24.395 45.529 24.4488 45.3971 24.4488 45.2276C24.4488 45.0903 24.4098 44.984 24.3319 44.9087C24.254 44.8307 24.1184 44.7754 23.9249 44.7433L23.6106 44.6907C23.4736 44.6664 23.3581 44.6302 23.2641 44.5818C23.1727 44.5333 23.0988 44.4755 23.0424 44.4082C22.9861 44.3382 22.9457 44.2628 22.9216 44.1821C22.8973 44.0986 22.8852 44.0126 22.8852 43.9238C22.8852 43.6654 22.9699 43.4703 23.1391 43.3385C23.3084 43.2066 23.5368 43.1406 23.8241 43.1406C24.0498 43.1406 24.2392 43.1784 24.3923 43.2537C24.5481 43.329 24.673 43.4354 24.7671 43.5726L24.5293 43.7785C24.4514 43.6761 24.3574 43.5928 24.2472 43.5282C24.1371 43.4636 23.9947 43.4313 23.8202 43.4313C23.6294 43.4313 23.483 43.4716 23.381 43.5524C23.2788 43.6331 23.2277 43.7542 23.2277 43.9157C23.2277 44.0422 23.2654 44.1457 23.3406 44.2265C23.4185 44.3045 23.5568 44.3611 23.7557 44.3961L24.0578 44.4485C24.1949 44.4728 24.3104 44.509 24.4044 44.5575C24.4984 44.6059 24.5737 44.6639 24.6301 44.731C24.6892 44.7984 24.7309 44.8737 24.755 44.9571C24.7793 45.0406 24.7913 45.128 24.7913 45.2195C24.7913 45.4806 24.7053 45.6851 24.5334 45.833C24.3642 45.9811 24.1223 46.055 23.808 46.055Z" fill="#4E47A4"/>
<path d="M26.2485 46.006V45.7355H26.9496V43.459H26.2485V43.1885H27.9893V43.459H27.2881V45.7355H27.9893V46.006H26.2485Z" fill="#4E47A4"/>
<path d="M29.8696 43.6325H29.8413V46.006H29.5351V43.1885H30.0146L30.9736 45.5619H31.0019V43.1885H31.3081V46.006H30.8287L29.8696 43.6325Z" fill="#4E47A4"/>
<path d="M32.8782 46.006V43.1885H34.6108V43.4833H33.2166V44.4317H34.5626V44.7265H33.2166V45.7114H34.6108V46.006H32.8782Z" fill="#4E47A4"/>
<path d="M37.0191 46.055C36.7666 46.055 36.5597 46.0093 36.3985 45.9178C36.2373 45.8237 36.1044 45.704 35.9996 45.5586L36.2454 45.3568C36.3555 45.494 36.4711 45.5962 36.5919 45.6635C36.7155 45.7308 36.862 45.7645 37.0312 45.7645C37.2353 45.7645 37.3911 45.7174 37.4986 45.6232C37.606 45.529 37.6598 45.3971 37.6598 45.2276C37.6598 45.0903 37.6208 44.984 37.5429 44.9087C37.465 44.8307 37.3294 44.7754 37.1359 44.7433L36.8216 44.6907C36.6846 44.6664 36.569 44.6302 36.475 44.5818C36.3837 44.5333 36.3099 44.4755 36.2534 44.4082C36.197 44.3382 36.1568 44.2628 36.1325 44.1821C36.1084 44.0986 36.0962 44.0126 36.0962 43.9238C36.0962 43.6654 36.1809 43.4703 36.3501 43.3385C36.5195 43.2066 36.7477 43.1406 37.0352 43.1406C37.2608 43.1406 37.4502 43.1784 37.6034 43.2537C37.7592 43.329 37.8842 43.4354 37.9782 43.5726L37.7404 43.7785C37.6625 43.6761 37.5685 43.5928 37.4583 43.5282C37.3482 43.4636 37.2058 43.4313 37.0312 43.4313C36.8404 43.4313 36.694 43.4716 36.5919 43.5524C36.4898 43.6331 36.4389 43.7542 36.4389 43.9157C36.4389 44.0422 36.4764 44.1457 36.5516 44.2265C36.6295 44.3045 36.7679 44.3611 36.9667 44.3961L37.2689 44.4485C37.4059 44.4728 37.5215 44.509 37.6155 44.5575C37.7095 44.6059 37.7847 44.6639 37.8411 44.731C37.9003 44.7984 37.9419 44.8737 37.966 44.9571C37.9902 45.0406 38.0023 45.128 38.0023 45.2195C38.0023 45.4806 37.9164 45.6851 37.7445 45.833C37.5751 45.9811 37.3334 46.055 37.0191 46.055Z" fill="#4E47A4"/>
<path d="M40.3219 46.055C40.0693 46.055 39.8624 46.0093 39.7014 45.9178C39.5401 45.8237 39.4071 45.704 39.3024 45.5586L39.5481 45.3568C39.6583 45.494 39.7738 45.5962 39.8947 45.6635C40.0182 45.7308 40.1647 45.7645 40.3339 45.7645C40.5381 45.7645 40.6939 45.7174 40.8015 45.6232C40.9089 45.529 40.9625 45.3971 40.9625 45.2276C40.9625 45.0903 40.9237 44.984 40.8458 44.9087C40.7679 44.8307 40.6321 44.7754 40.4388 44.7433L40.1245 44.6907C39.9873 44.6664 39.8719 44.6302 39.7779 44.5818C39.6864 44.5333 39.6126 44.4755 39.5563 44.4082C39.4998 44.3382 39.4595 44.2628 39.4353 44.1821C39.4112 44.0986 39.3991 44.0126 39.3991 43.9238C39.3991 43.6654 39.4836 43.4703 39.653 43.3385C39.8222 43.2066 40.0505 43.1406 40.338 43.1406C40.5637 43.1406 40.7531 43.1784 40.9062 43.2537C41.062 43.329 41.1869 43.4354 41.2809 43.5726L41.0431 43.7785C40.9652 43.6761 40.8712 43.5928 40.7611 43.5282C40.6509 43.4636 40.5085 43.4313 40.3339 43.4313C40.1431 43.4313 39.9968 43.4716 39.8947 43.5524C39.7927 43.6331 39.7416 43.7542 39.7416 43.9157C39.7416 44.0422 39.7793 44.1457 39.8545 44.2265C39.9324 44.3045 40.0707 44.3611 40.2694 44.3961L40.5717 44.4485C40.7086 44.4728 40.8242 44.509 40.9182 44.5575C41.0123 44.6059 41.0874 44.6639 41.1439 44.731C41.203 44.7984 41.2446 44.8737 41.2689 44.9571C41.293 45.0406 41.305 45.128 41.305 45.2195C41.305 45.4806 41.2191 45.6851 41.0472 45.833C40.878 45.9811 40.6362 46.055 40.3219 46.055Z" fill="#4E47A4"/>
<path d="M46.0651 46.006V45.7355H46.7662V43.459H46.0651V43.1885H47.8058V43.459H47.1046V45.7355H47.8058V46.006H46.0651Z" fill="#4E47A4"/>
<path d="M49.6861 43.6325H49.6578V46.006H49.3516V43.1885H49.8311L50.7901 45.5619H50.8185V43.1885H51.1247V46.006H50.6452L49.6861 43.6325Z" fill="#4E47A4"/>
<path d="M53.6336 46.055C53.2898 46.055 53.0332 45.9299 52.864 45.6797C52.6975 45.4294 52.6141 45.0688 52.6141 44.5979C52.6141 44.127 52.6975 43.7664 52.864 43.516C53.0332 43.2658 53.2898 43.1406 53.6336 43.1406C53.7626 43.1406 53.8741 43.1581 53.9681 43.1932C54.0621 43.2282 54.1428 43.2753 54.2098 43.3344C54.277 43.3936 54.3334 43.4609 54.3792 43.5362C54.4248 43.609 54.4651 43.6829 54.5 43.7583L54.2098 43.8915C54.1857 43.8296 54.1575 43.7717 54.1253 43.718C54.093 43.6614 54.054 43.6129 54.0084 43.5726C53.9654 43.5296 53.913 43.4959 53.8512 43.4716C53.7921 43.4475 53.7197 43.4354 53.6336 43.4354C53.4106 43.4354 53.2441 43.5201 53.134 43.6896C53.0265 43.8592 52.9727 44.0852 52.9727 44.3677V44.8279C52.9727 45.1105 53.0265 45.3366 53.134 45.5061C53.2441 45.6756 53.4106 45.7604 53.6336 45.7604C53.7197 45.7604 53.7921 45.7483 53.8512 45.724C53.913 45.6999 53.9654 45.6676 54.0084 45.6271C54.054 45.5841 54.093 45.5357 54.1253 45.4819C54.1575 45.4253 54.1857 45.3662 54.2098 45.3043L54.5 45.4374C54.4651 45.5154 54.4248 45.5909 54.3792 45.6635C54.3334 45.7361 54.277 45.8021 54.2098 45.8614C54.1428 45.9206 54.0621 45.9676 53.9681 46.0027C53.8741 46.0375 53.7626 46.055 53.6336 46.055Z" fill="#4E47A4"/>
<path d="M56.2956 43.1885V44.8799C56.2956 45.0171 56.2997 45.1395 56.3077 45.2471C56.3158 45.3549 56.3372 45.4477 56.3722 45.5257C56.4071 45.601 56.4609 45.6588 56.5334 45.6993C56.6086 45.7396 56.7121 45.7598 56.8437 45.7598C56.9754 45.7598 57.0774 45.7396 57.15 45.6993C57.2252 45.6588 57.2802 45.601 57.3151 45.5257C57.3501 45.4477 57.3716 45.3549 57.3796 45.2471C57.3877 45.1395 57.3917 45.0171 57.3917 44.8799V43.1885H57.7302V44.7991C57.7302 45.0091 57.7195 45.192 57.698 45.3481C57.6792 45.5041 57.6376 45.6347 57.5731 45.7396C57.5113 45.8447 57.4212 45.924 57.3031 45.9778C57.1875 46.0289 57.0344 46.0545 56.8437 46.0545C56.6529 46.0545 56.4985 46.0289 56.3803 45.9778C56.2648 45.924 56.1748 45.8447 56.1103 45.7396C56.0485 45.6347 56.0068 45.5041 55.9854 45.3481C55.9666 45.192 55.9572 45.0091 55.9572 44.7991V43.1885H56.2956Z" fill="#4E47A4"/>
<path d="M59.2922 43.1885H60.2472C60.489 43.1885 60.6784 43.2544 60.8154 43.3864C60.9523 43.5181 61.0209 43.6944 61.0209 43.9151C61.0209 44.0846 60.9793 44.2179 60.896 44.3148C60.8154 44.4117 60.7107 44.4802 60.5817 44.5206V44.5327C60.7402 44.5703 60.8705 44.6417 60.9725 44.7466C61.0747 44.8489 61.1256 44.9982 61.1256 45.1947C61.1256 45.3078 61.1068 45.414 61.0693 45.5136C61.0316 45.6131 60.978 45.6993 60.908 45.7719C60.8408 45.8446 60.7604 45.9025 60.6664 45.9455C60.5749 45.9859 60.4756 46.006 60.368 46.006H59.2922V43.1885ZM60.2674 45.7114C60.4232 45.7114 60.5454 45.6764 60.6341 45.6065C60.7227 45.5364 60.767 45.4288 60.767 45.2835V45.118C60.767 44.9754 60.7227 44.8691 60.6341 44.7991C60.5454 44.7265 60.4232 44.6901 60.2674 44.6901H59.6306V45.7114H60.2674ZM60.2109 44.4117C60.3532 44.4117 60.4647 44.3807 60.5454 44.3187C60.626 44.2542 60.6664 44.1573 60.6664 44.0281V43.8707C60.6664 43.7415 60.626 43.6446 60.5454 43.58C60.4647 43.5154 60.3532 43.4833 60.2109 43.4833H59.6306V44.4117H60.2109Z" fill="#4E47A4"/>
<path d="M64.1786 46.006L63.9409 45.2027H62.9535L62.7159 46.006H62.3652L63.2276 43.1885H63.6749L64.5373 46.006H64.1786ZM63.4653 43.5477H63.429L63.0341 44.9081H63.8603L63.4653 43.5477Z" fill="#4E47A4"/>
<path d="M66.9211 43.4833V46.006H66.5827V43.4833H65.6438V43.1885H67.8601V43.4833H66.9211Z" fill="#4E47A4"/>
<path d="M70.0548 46.055C69.8829 46.055 69.7351 46.0227 69.6115 45.9581C69.4879 45.891 69.3858 45.7954 69.3052 45.6717C69.2246 45.5477 69.1655 45.3958 69.128 45.2155C69.0903 45.0352 69.0715 44.8293 69.0715 44.5979C69.0715 44.3691 69.0903 44.1646 69.128 43.9844C69.1655 43.8013 69.2246 43.6479 69.3052 43.5242C69.3858 43.4004 69.4879 43.3062 69.6115 43.2416C69.7351 43.1743 69.8829 43.1406 70.0548 43.1406C70.2267 43.1406 70.3744 43.1743 70.4979 43.2416C70.6216 43.3062 70.7237 43.4004 70.8043 43.5242C70.8849 43.6479 70.9439 43.8013 70.9816 43.9844C71.0191 44.1646 71.038 44.3691 71.038 44.5979C71.038 44.8293 71.0191 45.0352 70.9816 45.2155C70.9439 45.3958 70.8849 45.5477 70.8043 45.6717C70.7237 45.7954 70.6216 45.891 70.4979 45.9581C70.3744 46.0227 70.2267 46.055 70.0548 46.055ZM70.0548 45.7604C70.1675 45.7604 70.2629 45.7388 70.3408 45.6958C70.4187 45.6501 70.4832 45.5868 70.5343 45.5061C70.5853 45.4253 70.6216 45.3284 70.643 45.2155C70.6673 45.0998 70.6794 44.9706 70.6794 44.8279V44.3677C70.6794 44.2278 70.6673 44.1 70.643 43.9844C70.6216 43.8686 70.5853 43.7703 70.5343 43.6896C70.4832 43.609 70.4187 43.5471 70.3408 43.5039C70.2629 43.4582 70.1675 43.4354 70.0548 43.4354C69.9419 43.4354 69.8466 43.4582 69.7687 43.5039C69.6908 43.5471 69.6263 43.609 69.5752 43.6896C69.5241 43.7703 69.4866 43.8686 69.4623 43.9844C69.4409 44.1 69.4301 44.2278 69.4301 44.3677V44.8279C69.4301 44.9706 69.4409 45.0998 69.4623 45.2155C69.4866 45.3284 69.5241 45.4253 69.5752 45.5061C69.6263 45.5868 69.6908 45.6501 69.7687 45.6958C69.8466 45.7388 69.9419 45.7604 70.0548 45.7604Z" fill="#4E47A4"/>
<path d="M72.8497 46.006H72.5112V43.1885H73.5348C73.7953 43.1885 73.9941 43.2599 74.1312 43.4025C74.2681 43.5451 74.3367 43.7442 74.3367 43.9999C74.3367 44.2286 74.2775 44.4117 74.1593 44.5489C74.0411 44.6861 73.8691 44.7655 73.6436 44.787L74.3608 46.006H73.982L73.297 44.8032H72.8497V46.006ZM73.5267 44.5166C73.669 44.5166 73.7792 44.4815 73.8571 44.4117C73.9377 44.3389 73.9779 44.2367 73.9779 44.1048V43.8949C73.9779 43.7631 73.9377 43.6621 73.8571 43.5922C73.7792 43.5195 73.669 43.4833 73.5267 43.4833H72.8497V44.5166H73.5267Z" fill="#4E47A4"/>
</svg>
