<?xml version="1.0" encoding="utf-8"?><!-- Uploaded to: SVG Repo, www.svgrepo.com, Generator: SVG Repo Mixer Tools -->
<svg width="800px" height="800px" viewBox="0 0 24 24" fill="none" xmlns="http://www.w3.org/2000/svg">
<path fill-rule="evenodd" clip-rule="evenodd" d="M7 2C4.23858 2 2 4.23858 2 7V17C2 19.7614 4.23858 22 7 22H17C19.7614 22 22 19.7614 22 17V7C22 4.23858 19.7614 2 17 2H7ZM8.0002 13.3C8.71817 13.3 9.3002 12.7179 9.3002 12C9.3002 11.282 8.71817 10.7 8.0002 10.7C7.28223 10.7 6.7002 11.282 6.7002 12C6.7002 12.7179 7.28223 13.3 8.0002 13.3ZM16.0002 13.3C16.7182 13.3 17.3002 12.7179 17.3002 12C17.3002 11.282 16.7182 10.7 16.0002 10.7C15.2822 10.7 14.7002 11.282 14.7002 12C14.7002 12.7179 15.2822 13.3 16.0002 13.3ZM12.0002 13.3C12.7182 13.3 13.3002 12.7179 13.3002 12C13.3002 11.282 12.7182 10.7 12.0002 10.7C11.2822 10.7 10.7002 11.282 10.7002 12C10.7002 12.7179 11.2822 13.3 12.0002 13.3Z" fill="#5850EC"/>
</svg>